<?xml version="1.0" encoding="UTF-8" standalone="no"?>
<!-- Created with Inkscape (http://www.inkscape.org/) -->

<svg
   xmlns:dc="http://purl.org/dc/elements/1.1/"
   xmlns:cc="http://creativecommons.org/ns#"
   xmlns:rdf="http://www.w3.org/1999/02/22-rdf-syntax-ns#"
   xmlns:svg="http://www.w3.org/2000/svg"
   xmlns="http://www.w3.org/2000/svg"
   xmlns:sodipodi="http://sodipodi.sourceforge.net/DTD/sodipodi-0.dtd"
   xmlns:inkscape="http://www.inkscape.org/namespaces/inkscape"
   width="275.51596mm"
   height="43.766617mm"
   viewBox="0 0 976.23766 155.07856"
   id="svg2"
   version="1.1"
   inkscape:version="0.91 r13725"
   inkscape:export-filename="/home/dexter/kicad/mencoder.png"
   inkscape:export-xdpi="150"
   inkscape:export-ydpi="150"
   sodipodi:docname="mencoder.svg">
  <defs
     id="defs4" />
  <sodipodi:namedview
     id="base"
     pagecolor="#ffffff"
     bordercolor="#666666"
     borderopacity="1.0"
     inkscape:pageopacity="0.0"
     inkscape:pageshadow="2"
     inkscape:zoom="1.4"
     inkscape:cx="7.2341201"
     inkscape:cy="-64.347112"
     inkscape:document-units="px"
     inkscape:current-layer="layer1"
     showgrid="false"
     inkscape:window-width="1920"
     inkscape:window-height="1016"
     inkscape:window-x="0"
     inkscape:window-y="27"
     inkscape:window-maximized="1"
     fit-margin-top="0"
     fit-margin-left="0"
     fit-margin-right="0"
     fit-margin-bottom="0" />
  <metadata
     id="metadata7">
    <rdf:RDF>
      <cc:Work
         rdf:about="">
        <dc:format>image/svg+xml</dc:format>
        <dc:type
           rdf:resource="http://purl.org/dc/dcmitype/StillImage" />
        <dc:title></dc:title>
      </cc:Work>
    </rdf:RDF>
  </metadata>
  <g
     inkscape:label="Layer 1"
     inkscape:groupmode="layer"
     id="layer1"
     transform="translate(161.8086,-625.57651)">
    <g
       id="g3370"
       transform="translate(-42.142857,132.85715)">
      <path
         style="fill:#cecece"
         d="m 341.77724,646.20926 c -18.82197,-5.23158 -32.09446,-19.187 -36.65665,-38.54279 -1.97255,-8.36881 -1.97683,-26.50733 -0.008,-34.85891 4.70225,-19.94889 18.48215,-34.05185 37.69881,-38.58263 11.69646,-2.75772 29.74807,-1.71783 43.51027,2.50647 l 4.25,1.30453 0,8.94871 c 0,8.14055 -0.15804,8.88122 -1.75,8.20149 -18.80161,-8.0278 -35.19541,-9.07529 -47.15835,-3.01321 -13.4015,6.79105 -20.72955,25.24081 -18.13944,45.66951 4.09195,32.27403 29.21099,42.81829 65.29779,27.41016 1.59236,-0.6799 1.75,0.0633 1.75,8.25023 l 0,8.99744 -8.25,2.31312 c -10.51433,2.94798 -32.26583,3.69685 -40.54419,1.39588 z m 104.56589,-0.83455 c -21.71476,-7.40044 -32.7717,-26.00946 -32.7717,-55.15535 0,-36.64565 18.13421,-57.5 50,-57.5 31.77605,0 50,20.95754 50,57.5 0,29.33659 -11.76273,48.71333 -33.68139,55.48331 -9.44423,2.91703 -24.45591,2.77027 -33.54691,-0.32796 z m 29.99483,-16.32199 c 9.43969,-4.47495 15.52729,-15.3278 17.28764,-30.82008 1.74323,-15.34156 -1.54791,-30.63366 -8.57303,-39.83418 -10.23735,-13.40746 -32.72493,-13.40746 -42.96228,0 -11.87393,15.5508 -12.08753,47.27531 -0.42509,63.13377 7.69307,10.46096 21.94787,13.55281 34.67276,7.52049 z m 91.51951,17.26898 c -14.60452,-4.74827 -25.6525,-17.98537 -30.35418,-36.36878 -2.6654,-10.4216 -2.6654,-29.04552 0,-39.46712 4.08035,-15.95404 13.0038,-28.14795 24.87542,-33.99233 6.39727,-3.14936 7.10948,-3.27411 18.69272,-3.27411 11.59731,0 12.2891,0.12162 18.7311,3.29301 4.47135,2.20124 8.19422,5.01364 11.22897,8.48282 l 4.53993,5.18982 0,-28.73283 0,-28.73282 9,0 9,0 0,76 0,76 -9,0 -9,0 0,-7.23282 0,-7.23283 -4.53993,5.18982 c -3.03083,3.46469 -6.75756,6.28156 -11.21141,8.47418 -6.09835,3.00221 -7.57683,3.30539 -17.21007,3.5292 -6.84065,0.15893 -12.01725,-0.2359 -14.75255,-1.12521 z m 29.45221,-16.84639 c 7.40271,-3.43243 13.63105,-12.51636 16.28811,-23.75595 0.71512,-3.025 1.30022,-10 1.30022,-15.5 0,-26.6122 -10.83215,-41.76733 -29.80206,-41.6957 -11.5839,0.0437 -19.3062,4.81486 -24.45478,15.10906 -3.94102,7.87975 -5.39632,15.04973 -5.39632,26.58664 0,27.91448 12.54731,43.87074 32.82658,41.74518 2.75,-0.28824 6.90721,-1.40839 9.23825,-2.48923 z m 105.26175,16.73678 c -12.17241,-2.96708 -22.24072,-9.39109 -29.22536,-18.64702 -7.66458,-10.15697 -10.7372,-20.70449 -10.75986,-36.93575 -0.0408,-29.19852 14.03535,-50.04786 38.11618,-56.4572 8.01322,-2.1328 23.29837,-1.8754 31.0137,0.52226 20.28997,6.30541 31.80146,24.4816 31.84056,50.27498 l 0.0148,9.75 -40.83449,0 -40.83449,0 0.84584,6.18491 c 2.36265,17.27609 13.33363,28.37601 30.41142,30.76883 11.98724,1.67958 30.66135,-1.49085 41.62188,-7.0664 2.04059,-1.03804 3.95309,-1.88734 4.25,-1.88734 0.29691,0 0.53984,3.97907 0.53984,8.84238 l 0,8.84237 -8.75,2.62068 c -4.8125,1.44138 -11.42015,3.08731 -14.68366,3.65763 -8.13099,1.42094 -26.8855,1.15815 -33.56634,-0.47033 z m 42.24276,-70.24273 c -1.83545,-17.04268 -12.76471,-27.58521 -28.59356,-27.58179 -9.51036,0.002 -16.41356,2.41533 -22.46022,7.85179 -5.22863,4.70098 -9.47677,12.74713 -10.68088,20.23 l -0.6839,4.25 31.46506,0 31.46507,0 z m -864.24276,57.75 0,-11 13.5,0 13.5,0 0,11 0,11 -13.5,0 -13.5,0 z m 63,0 0,-11 13.5,0 13.5,0 0,11 0,11 -13.5,0 -13.5,0 z m 63,0 0,-11 13.5,0 13.5,0 0,11 0,11 -13.5,0 -13.5,0 z m 52,-62 0,-73 46,0 46,0 0,8.5 0,8.5 -36,0 -36,0 0,21.5 0,21.5 34.5,0 34.5,0 0,8.5 0,8.5 -34.5,0 -34.5,0 0,26 0,26 37,0 37,0 0,8.5 0,8.5 -47,0 -47,0 z m 125,18.5 0,-54.5 9,0 9,0 0,8.1438 0,8.14381 3.40049,-4.4535 c 4.19841,-5.49848 12.39194,-11.16726 19.35279,-13.38942 3.92675,-1.25357 7.75571,-1.57653 15.16342,-1.279 8.92037,0.35829 10.58918,0.74442 16.70908,3.86618 7.93339,4.04681 12.67157,9.60181 16.39765,19.22445 2.39377,6.18195 2.42104,6.65152 2.75753,47.49368 l 0.33985,41.25 -8.97732,0 -8.97732,0 -0.37607,-37.75 c -0.36231,-36.36968 -0.45856,-37.95804 -2.63236,-43.43967 -2.31619,-5.8407 -7.11198,-11.03086 -12.01883,-13.00716 -1.4514,-0.58457 -6.03848,-1.06438 -10.19351,-1.06624 -16.33053,-0.007 -27.16532,9.56027 -29.89799,26.40117 -0.56776,3.49904 -1.0357,20.4244 -1.03986,37.6119 l -0.008,31.25 -9,0 -9,0 0,-54.5 z m 609,0 0,-54.5 9,0 9,0 0,7.557 0,7.557 5.46797,-5.90606 c 3.81848,-4.12441 7.36305,-6.76533 11.75,-8.75447 5.64959,-2.56165 7.38945,-2.8537 17.28203,-2.90094 l 11,-0.0525 0.2891,9.37201 c 0.2672,8.65993 0.1532,9.3187 -1.5,8.67037 -4.4451,-1.74321 -13.0775,-2.45908 -18.7117,-1.55173 -7.6895,1.23836 -14.22656,5.30216 -18.31808,11.38754 -6.18903,9.20507 -6.52571,11.57511 -7.01358,49.37181 l -0.44209,34.25 -8.90182,0 -8.90183,0 0,-54.5 z m -911.71545,5.75 c 0.6114,-30.17612 1.70837,-36.81849 7.45951,-45.16888 7.25131,-10.52858 20.049864,-16.08112 37.066856,-16.08112 11.000269,0 17.558674,1.40101 25.569614,5.46219 l 6.88052,3.48811 2.89053,-2.05824 c 7.95172,-5.66212 28.18001,-8.62741 40.8671,-5.99076 12.98313,2.69817 22.7794,9.92266 27.59589,20.35122 l 1.307067,6.18435 1.895423,29.84351 0.31706,29.78038 -12.81706,-0.28038 -12.81706,-0.28038 -0.5,-28 C 6.2238,573.75207 5.69737,564.56657 4.84397,563.07722 c -3.62819,-6.33186 -11.50151,-9.30041 -20.92068,-7.88792 -3.69339,0.55386 -5.70037,1.6922 -9.77092,5.54196 l -5.1228,4.84492 0.69141,8.32159 c 0.38028,4.57688 0.7272,17.20909 0.77093,28.07159 l 0.07952,19.75 -13.5,0 -13.5,0 0,-26.78811 c 0,-25.79155 -0.0837,-26.9541 -2.25,-31.25 -3.183353,-6.31279 -9.007259,-9.21961 -17.489229,-8.72921 -6.658961,0.385 -9.913232,2.0836 -13.698982,7.15033 -1.951397,2.61168 -2.077525,4.28157 -2.355697,31.18821 l -0.293908,28.42878 -13.574674,0 -13.57468,0 z"
         id="path3384"
         inkscape:connector-curvature="0"
         sodipodi:nodetypes="cscsscsssssscsccssssssssssssssssssscccccccccccsssssssssssscssssscccssssscssccsssscccsccccccccccccccccccccccccccccccccccccccccccccccccccccccccccsssssscccssscsccccccccccccssscssssscccccsssscssscccccsssscsscccssssscccs" />
      <path
         style="fill:#9e9e9e"
         d="m 342.20551,646.19534 c -23.97228,-6.05758 -38.59935,-27.26946 -38.59935,-55.97598 0,-18.01045 5.34257,-32.65457 15.64035,-42.87055 10.99375,-10.90642 24.6104,-15.31429 44.24903,-14.32392 10.8369,0.5465 24.11391,3.33249 26.30012,5.5187 0.47395,0.47395 0.72989,4.49353 0.56875,8.93241 l -0.29298,8.07068 -5.89745,-2.49006 c -12.84926,-5.42528 -27.93198,-6.48875 -38.92127,-2.74433 -6.77443,2.30828 -14.75108,9.94291 -18.03598,17.26265 -5.77343,12.86491 -5.7864,32.39502 -0.03,45.22191 3.3159,7.38881 11.26236,15.01134 18.06602,17.32958 10.98929,3.74442 26.07201,2.68094 38.92127,-2.74433 l 5.89745,-2.49006 0.29298,8.07068 c 0.16114,4.43888 -0.12409,8.48775 -0.63383,8.99749 -0.50975,0.50975 -4.24159,1.83503 -8.29298,2.94507 -9.84499,2.69743 -30.92005,3.39044 -39.23209,1.29006 z m 106.9704,-0.0692 c -22.15419,-5.36067 -35.60448,-26.48056 -35.60448,-55.90678 0,-18.59675 4.743,-32.78794 14.46981,-43.29405 8.9991,-9.7201 20.16787,-14.17639 35.53019,-14.17639 31.2053,0 50,21.60279 50,57.47044 0,29.72025 -13.4781,50.62977 -36.06767,55.95429 -7.93455,1.87023 -20.48951,1.84919 -28.32785,-0.0475 z m 27.0462,-16.47976 c 20.23097,-9.79365 24.70566,-53.50651 7.48493,-73.11982 -4.95681,-5.64547 -11.23281,-8.1842 -20.13561,-8.14512 -14.35466,0.063 -22.63064,6.68712 -28.12236,22.50921 -3.18169,9.16669 -3.24553,28.34839 -0.12777,38.38876 4.96446,15.98742 15.90925,24.16238 30.69476,22.92673 3.26954,-0.27324 7.86226,-1.42511 10.20605,-2.55972 z m 91.25826,16.17656 c -19.72846,-6.31198 -31.90894,-27.53734 -31.90894,-55.60358 0,-34.71132 17.99616,-57.5 45.40759,-57.5 13.08436,0 24.47981,5.04353 31.15866,13.79056 l 3.43375,4.49705 0,-29.14381 0,-29.1438 9,0 9,0 0,76 0,76 -9,0 -9,0 0,-7.6438 0,-7.6438 -3.43375,4.49704 c -4.147,5.43116 -11.15794,10.05602 -18.49775,12.2023 -7.15053,2.09093 -19.10118,1.95017 -26.15956,-0.30812 z m 26.15956,-14.69778 c 15.15468,-4.44795 24.11564,-25.31061 21.16071,-49.26576 -1.51645,-12.29356 -4.43932,-19.37437 -10.60923,-25.7014 -10.97171,-11.25109 -27.26825,-11.25109 -38.23996,0 -6.16991,6.32703 -9.09278,13.40784 -10.60923,25.7014 -2.89512,23.47027 5.53864,43.85944 20.22921,48.90545 6.78836,2.33171 11.06137,2.41692 18.0685,0.36031 z m 108.29354,14.67464 c -10.39013,-2.81405 -17.00584,-6.5391 -23.95463,-13.48789 -10.46999,-10.46999 -15.42205,-23.82428 -15.39005,-41.50255 0.0334,-18.43535 4.7726,-31.87883 14.98881,-42.51795 10.03466,-10.45001 22.33288,-15.52574 37.69461,-15.55727 29.83031,-0.0612 48.29922,20.06951 48.29922,52.64518 l 0,9.34004 -41,0 c -22.55,0 -40.99219,0.3375 -40.98264,0.75 0.01,0.4125 0.64985,3.73398 1.42289,7.38107 2.85049,13.4482 10.01321,22.56539 21.14094,26.90958 4.83002,1.8856 7.85033,2.31382 16.41881,2.32785 12.28392,0.0201 19.40921,-1.34697 30.75,-5.89978 l 8.25,-3.312 0,8.47267 0,8.47266 -3.50955,1.46639 c -13.94583,5.82694 -40.95937,8.07874 -54.12841,4.51204 z m 43.13667,-70.33044 c -0.98932,-7.53866 -5.13021,-16.18436 -9.751,-20.35897 -6.00638,-5.42639 -9.99084,-6.78994 -19.85945,-6.79623 -7.71154,-0.005 -9.30598,0.33629 -15.25327,3.26413 -8.08956,3.98248 -12.78817,9.65955 -15.6421,18.89952 -3.4959,11.31841 -6.60832,10.24155 29.60095,10.24155 l 31.59384,0 z m -864.49871,58.25 0,-11 13.5,0 13.5,0 0,11 0,11 -13.5,0 -13.5,0 z m 63,0 0,-11 13.5,0 13.5,0 0,11 0,11 -13.5,0 -13.5,0 z m 63,0 0,-11 13.5,0 13.5,0 0,11 0,11 -13.5,0 -13.5,0 z m 52,-62 0,-73 46,0 46,0 0,8.5 0,8.5 -36,0 -36,0 0,21.5 0,21.5 34.5,0 34.5,0 0,8.5 0,8.5 -34.5,0 -34.5,0 0,26 0,26 37,0 37,0 0,8.5 0,8.5 -47,0 -47,0 z m 125,18.5 0,-54.5 9,0 9,0 0,7.92576 0,7.92576 5.67429,-5.9489 c 3.65413,-3.83097 8.00914,-7.09773 12.23244,-9.17576 6.23819,-3.06943 7.12005,-3.22686 18.0757,-3.22686 10.56105,0 11.98609,0.23008 17.15908,2.77047 6.28183,3.08492 12.611,9.36393 15.86186,15.73614 4.37535,8.57639 4.96079,15.07164 4.97927,55.24339 l 0.0174,37.75 -8.92654,0 -8.92653,0 -0.38155,-38.25 c -0.3335,-33.43325 -0.60271,-38.83718 -2.13775,-42.91279 -2.46474,-6.544 -7.5532,-11.44066 -13.82391,-13.30286 -6.46045,-1.91855 -9.87316,-1.92775 -17.09731,-0.0461 -10.19052,2.6543 -16.40346,8.29936 -20.37399,18.51175 -1.52191,3.91442 -1.79633,9.15214 -2.10882,40.25 l -0.35923,35.75 -8.93219,0 -8.93218,0 0,-54.5 z m 609,0 0,-54.5 9,0 9,0 0,8.15004 0,8.15004 2.88467,-3.98217 c 4.10849,-5.6716 9.75822,-10.03374 16.11533,-12.44258 5.75912,-2.18224 19.8808,-3.62402 24.3961,-2.49076 2.5662,0.64408 2.6039,0.78499 2.6039,9.74147 0,8.23992 -0.1631,9.02535 -1.7478,8.41726 -12.2074,-4.68442 -27.16727,-1.80723 -34.85651,6.70384 -8.23234,9.11221 -9.3783,15.94817 -9.38814,56.00286 l -0.008,30.75 -9,0 -9,0 0,-54.5 z m -911.71545,5.75 c 0.6114,-30.17612 1.70837,-36.81849 7.45951,-45.16888 7.25131,-10.52858 20.049864,-16.08112 37.066856,-16.08112 11.000269,0 17.558674,1.40101 25.569614,5.46219 l 6.88052,3.48811 2.89053,-2.05824 c 7.95172,-5.66212 28.18001,-8.62741 40.8671,-5.99076 12.98313,2.69817 22.7794,9.92266 27.59589,20.35122 l 1.307067,6.24748 1.895423,29.78038 0.31706,29.78038 -12.81706,-0.28038 -12.81706,-0.28038 -0.5,-28 C 6.2238,573.75207 5.69737,564.56657 4.84397,563.07722 c -3.62819,-6.33186 -11.50151,-9.30041 -20.92068,-7.88792 -3.69339,0.55386 -5.70037,1.6922 -9.77092,5.54196 l -5.1228,4.84492 0.69141,8.32159 c 0.38028,4.57688 0.7272,17.20909 0.77093,28.07159 l 0.07952,19.75 -13.5,0 -13.5,0 0,-26.78811 c 0,-25.79155 -0.0837,-26.9541 -2.25,-31.25 -3.183353,-6.31279 -9.007259,-9.21961 -17.489229,-8.72921 -6.658961,0.385 -9.913232,2.0836 -13.698982,7.15033 -1.951397,2.61168 -2.077525,4.28157 -2.355697,31.18821 l -0.293908,28.42878 -13.574674,0 -13.57468,0 z"
         id="path3382"
         inkscape:connector-curvature="0"
         sodipodi:nodetypes="cssssscsssssscssscccssssscccssssscccssscccccccccccssccssssssscssssscscsssscccsccsscssscsccccccccccccccccccccccccccccccccccccccccccccccccccccccccccsssssscccsssssscccccccccccssssssccccccsssscssscccccsssscsscccssssscccs" />
      <path
         style="fill:#746d67"
         d="m 343.63023,646.2327 c -3.54267,-0.80615 -8.94267,-2.68109 -12,-4.16653 -7.78725,-3.78352 -17.95511,-14.19862 -21.81634,-22.34681 -8.0806,-17.05218 -8.22336,-41.05876 -0.34747,-58.42867 3.84496,-8.47988 14.01134,-18.86121 22.43531,-22.90965 12.9417,-6.21961 33.56251,-7.23066 50.1697,-2.45987 l 8,2.29819 0.28753,8.65362 0.28752,8.65362 -5.78752,-2.37264 c -20.44269,-8.38064 -39.99856,-6.72357 -51.04767,4.32554 -15.03788,15.03788 -15.03788,50.44184 0,65.47972 11.04057,11.04057 30.60715,12.70563 51.01014,4.3408 l 5.75,-2.35739 0,8.41311 c 0,8.25595 -0.0513,8.43264 -2.74748,9.45771 -11.13617,4.23397 -33.13407,5.93593 -44.19372,3.41925 z m 107.9412,0.39519 c -7.78811,-1.50976 -18.38282,-7.43083 -23.57327,-13.17441 -19.16653,-21.20904 -19.23836,-65.18225 -0.14098,-86.31143 13.75803,-15.22179 40.92606,-18.889 60.93377,-8.225 16.6048,8.85026 25.87054,30.01868 24.42554,55.80231 -0.96277,17.17896 -5.17889,28.81624 -13.9908,38.6172 -10.25091,11.40148 -29.5853,16.79406 -47.65426,13.29133 z m 20.91347,-15.47547 c 13.35745,-3.96674 22.0518,-20.1054 22.0518,-40.93306 0,-20.82766 -8.69435,-36.96632 -22.0518,-40.93306 -24.01519,-7.13174 -41.40165,12.6257 -39.54089,44.93306 0.83109,14.42966 3.48304,22.01378 10.35884,29.62447 7.38785,8.17747 17.62376,10.74103 29.18205,7.30859 z m 97.821,15.54156 c -20.88318,-5.26757 -34.71936,-27.77355 -34.71936,-56.47462 0,-38.1235 23.42953,-62.59118 54.14834,-56.54763 8.81544,1.73433 14.70333,5.02729 20.67832,11.56488 l 5.15823,5.64392 0,-29.08058 0,-29.08059 9,0 9,0 0,76 0,76 -9,0 -9,0 0,-7.557 0,-7.557 -5.46797,5.90606 c -7.63229,8.24379 -14.84252,11.40132 -26.99206,11.82049 -4.97198,0.17154 -10.73446,-0.11553 -12.8055,-0.63793 z m 26.76553,-16.74005 c 11.73294,-6.05743 18.48489,-20.57121 18.48489,-39.73457 0,-19.13741 -6.65022,-33.46233 -18.48489,-39.81743 -3.12619,-1.67872 -5.74763,-2.15173 -12,-2.16526 -6.98319,-0.0151 -8.66783,0.35272 -13.25433,2.89397 -11.09066,6.14505 -17.21094,20.04516 -17.21094,39.08872 0,27.06248 12.29338,43.27937 31.96527,42.16717 3.97827,-0.22493 8.05183,-1.16867 10.5,-2.4326 z m 107.29097,16.31042 c -18.83133,-3.94005 -32.00689,-15.47205 -38.59584,-33.78126 -2.36619,-6.5751 -2.6134,-8.63838 -2.60762,-21.76373 0.006,-13.16335 0.25549,-15.21613 2.7086,-22.26853 7.59784,-21.84297 23.20179,-33.9304 45.70389,-35.40405 16.38286,-1.0729 28.77354,3.34019 38.31532,13.64644 3.02387,3.26615 6.62417,8.32069 8.00066,11.2323 3.34426,7.07395 5.68402,18.90925 5.68402,28.75168 l 0,8.04216 -41,0 c -36.39506,0 -41,0.17438 -41,1.55259 0,5.17483 3.5585,16.0753 6.83646,20.9416 6.75504,10.02818 14.95693,14.28799 29.16354,15.14664 10.7841,0.65179 22.01143,-1.33172 33.38329,-5.89775 l 8.61671,-3.45979 0,8.3831 c 0,9.75018 1.08602,8.80859 -15,13.00515 -11.92092,3.10996 -30.22342,3.96272 -40.20903,1.87345 z m 40.83578,-70.29499 c -1.2169,-8.9604 -3.65587,-14.3242 -9.0098,-19.81444 -5.66489,-5.80912 -12.10775,-8.43556 -20.69312,-8.43556 -7.04752,0 -16.87192,3.40775 -21.67366,7.51785 -4.87818,4.17555 -9.961,13.85729 -10.88418,20.73215 l -0.63784,4.75 31.77185,0 31.77185,0 z m -864.62675,57.75 0,-11 13.5,0 13.5,0 0,11 0,11 -13.5,0 -13.5,0 z m 63,0 0,-11 13.5,0 13.5,0 0,11 0,11 -13.5,0 -13.5,0 z m 63,0 0,-11 13.5,0 13.5,0 0,11 0,11 -13.5,0 -13.5,0 z m 52,-62 0,-73 46,0 46,0 0,8.5 0,8.5 -36,0 -36,0 0,21.5 0,21.5 34.5,0 34.5,0 0,8.5 0,8.5 -34.5,0 -34.5,0 0,26 0,26 37,0 37,0 0,8.5 0,8.5 -47,0 -47,0 z m 125,18.5 0,-54.5 9,0 9,0 0,7.89655 0,7.89655 6.75,-6.738 c 9.07895,-9.06282 14.92661,-11.39983 28.75,-11.48993 13.27834,-0.0865 18.98822,1.9402 26.58737,9.43726 10.64346,10.50048 11.895,17.41231 11.90508,65.74757 l 0.008,36.25 -9,0 -9,0 -0.0156,-35.75 c -0.017,-38.84794 -0.55316,-43.97778 -5.35508,-51.23398 -7.01773,-10.6045 -26.64369,-11.97638 -38.81286,-2.71305 -2.89693,2.20517 -5.46746,5.53901 -7.81644,10.13748 l -3.5,6.85176 -0.30705,36.3539 -0.30707,36.35389 -8.94295,0 -8.94295,0 0,-54.5 z m 609,0 0,-54.5 9,0 9,0 0,8.03746 0,8.03746 4.25,-5.19652 c 7.16286,-8.75811 19.09195,-13.89987 32.1668,-13.86474 9.6141,0.0258 9.5832,-0.006 9.5832,10.0051 l 0,8.7855 -4.6589,-1.40213 c -6.1492,-1.85061 -13.72045,-1.77438 -20.4096,0.20551 -7.28125,2.15514 -14.72527,9.54807 -18.016,17.89236 -2.30252,5.8385 -2.37545,6.94883 -2.70944,41.25 l -0.34322,35.25 -8.93142,0 -8.93142,0 z m -911.71545,5.75 c 0.6114,-30.17612 1.70837,-36.81849 7.45951,-45.16888 7.25131,-10.52858 20.049864,-16.08112 37.066856,-16.08112 11.000269,0 17.558674,1.40101 25.569614,5.46219 l 6.88052,3.48811 2.89053,-2.05824 c 7.95172,-5.66212 28.18001,-8.62741 40.8671,-5.99076 12.98313,2.69817 22.7794,9.92266 27.59589,20.35122 2.845113,11.72617 -6.259219,22.95076 3.20249,36.02786 l 0.31706,29.78038 -12.81706,-0.28038 -12.81706,-0.28038 -0.5,-28 C 6.2238,573.75207 5.69737,564.56657 4.84397,563.07722 c -3.62819,-6.33186 -11.50151,-9.30041 -20.92068,-7.88792 -3.69339,0.55386 -5.70037,1.6922 -9.77092,5.54196 l -5.1228,4.84492 0.69141,8.32159 c 0.38028,4.57688 0.7272,17.20909 0.77093,28.07159 l 0.07952,19.75 -13.5,0 -13.5,0 0,-26.78811 c 0,-25.79155 -0.0837,-26.9541 -2.25,-31.25 -3.183353,-6.31279 -9.007259,-9.21961 -17.489229,-8.72921 -6.658961,0.385 -9.913232,2.0836 -13.698982,7.15033 -1.951397,2.61168 -2.077525,4.28157 -2.355697,31.18821 l -0.293908,28.42878 -13.574674,0 -13.57468,0 z"
         id="path3380"
         inkscape:connector-curvature="0"
         sodipodi:nodetypes="sssssscccsssscsssssssssssssssssssscccccccccccssssssssssssscssssscssssscsssssssscccsccccccccccccccccccccccccccccccccccccccccccccccccccccccccccsssccccsssscccccccccccccssscssssccccsssscsscccccsssscsscccssssscccs" />
      <path
         style="fill:#e3312c"
         d="m 344.34649,646.19309 c -9.189,-1.82871 -19.54115,-7.47581 -25.76148,-14.05289 -15.8585,-16.76802 -19.52983,-48.84323 -8.26973,-72.24988 3.35791,-6.98016 13.10941,-17.05001 19.78428,-20.43016 15.06425,-7.62853 34.6691,-8.63041 53.72187,-2.74538 l 6.75,2.08494 0,8.41381 0,8.41382 -5.25,-2.43721 c -8.21819,-3.81514 -18.71575,-5.77587 -28.24553,-5.27568 -15.34822,0.80557 -26.04806,8.43346 -31.63546,22.55281 -1.98604,5.01871 -2.27625,7.53707 -2.27625,19.75209 0,12.21502 0.29021,14.73338 2.27625,19.75209 5.5874,14.11935 16.28724,21.74724 31.63546,22.55281 9.52978,0.50019 20.02734,-1.46054 28.24553,-5.27568 l 5.25,-2.43721 0,8.41381 0,8.41382 -6.37817,1.97002 c -13.09326,4.04409 -27.73815,4.99382 -39.84677,2.58407 z m 108.22494,0.40054 c -13.51649,-2.19195 -26.12021,-11.9766 -32.3787,-25.13654 -4.63719,-9.7508 -6.03325,-16.97903 -6.03325,-31.23773 0,-14.33353 1.39517,-21.48587 6.13442,-31.44806 6.75554,-14.20056 18.91557,-22.95172 35.02753,-25.20813 28.08393,-3.93304 50.45143,11.40432 56.37491,38.65619 1.89418,8.71447 1.64238,29.50383 -0.45419,37.5 -7.31151,27.88556 -29.21407,41.65121 -58.67072,36.87427 z m 22,-15.95095 c 12.89298,-5.82405 19.97044,-20.14994 19.97044,-40.42332 0,-19.23123 -6.61138,-33.53393 -18.40223,-39.81042 -5.81554,-3.09572 -19.32802,-3.10236 -25.06821,-0.0123 -12.00992,6.46515 -18.47044,20.39418 -18.47044,39.82274 0,26.16688 11.91404,42.50402 30.97044,42.46827 4.37057,-0.008 7.97422,-0.67813 11,-2.04495 z m 95.02424,15.54078 c -15.26161,-4.28843 -26.59308,-17.32819 -31.68707,-36.4641 -2.37049,-8.9049 -2.38323,-30.01341 -0.0235,-39 2.9419,-11.20387 7.95429,-20.08587 15.11555,-26.78487 8.93916,-8.36214 14.93525,-10.62163 28.07082,-10.57784 13.61625,0.0454 19.71669,2.40623 28.25,10.93261 l 6.24996,6.24491 0,-28.9074 0,-28.90741 9,0 9,0 0,76 0,76 -9,0 -9,0 0,-7.40741 0,-7.4074 -6.25,6.24491 c -4.63369,4.62993 -7.79043,6.82052 -12.20658,8.47067 -7.852,2.93399 -20.15415,3.63286 -27.51918,1.56333 z m 24.86597,-14.92536 c 8.61409,-3.03923 14.92864,-10.29544 18.74359,-21.53874 1.47083,-4.33477 1.8662,-8.46603 1.8662,-19.5 0,-15.48448 -1.25283,-21.05701 -6.6712,-29.67327 -10.16822,-16.16941 -33.64299,-17.3509 -45.07441,-2.26859 -6.49009,8.56286 -8.26624,15.60632 -8.18083,32.44186 0.0617,12.17277 0.41329,15.42015 2.19031,20.23308 3.9447,10.68391 9.98524,17.47983 18.1212,20.3873 4.87708,1.74288 13.9443,1.70393 19.00514,-0.0816 z m 114.60979,15.7637 c -16.78083,-2.22567 -32.65846,-12.74942 -39.40768,-26.11955 -5.13599,-10.17434 -6.52674,-16.49197 -6.53435,-29.68289 -0.008,-13.70269 1.25784,-20.03271 6.02022,-30.10731 7.89774,-16.70732 21.98858,-26.18262 41.57608,-27.95759 31.78611,-2.88038 52.63881,18.56621 52.81084,54.3149 l 0.0349,7.25 -41.12883,0 -41.12883,0 0.67448,5.08451 c 2.25078,16.96718 12.38093,28.68935 27.58047,31.91492 12.21969,2.59319 33.0154,-0.425 45.09135,-6.54435 l 4.91136,-2.48877 0,8.40826 0,8.40827 -3.75,1.48061 c -12.69079,5.01067 -33.87291,7.7469 -46.75001,6.03899 z m 36.21185,-71.80541 c -1.10053,-10.66312 -7.1755,-20.02752 -16.0774,-24.78289 -5.89385,-3.14848 -21.02012,-3.18993 -27.75685,-0.0761 -9.88619,4.56962 -16.54999,13.54176 -18.65116,25.11192 l -0.95341,5.25 32.00339,0 32.00339,0 -0.56796,-5.50297 z m -686.71185,-3.49703 0,-73 46,0 46,0 0,8.5 0,8.5 -36,0 -36,0 0,21.5 0,21.5 34.5,0 34.5,0 0,8.5 0,8.5 -34.5,0 -34.5,0 0,26 0,26 37,0 37,0 0,8.5 0,8.5 -47,0 -47,0 z m 125,18.5 0,-54.5 9,0 9,0 0,8.65004 0,8.65004 2.85115,-3.9359 c 4.03448,-5.56944 8.65296,-9.21442 16.14885,-12.74493 5.81869,-2.74057 7.49576,-3.06252 16,-3.07155 19.61568,-0.0208 30.25809,7.45608 36.228,25.4523 2.03187,6.12503 2.17862,8.79306 2.54398,46.25 l 0.38773,39.75 -9.02585,0 -9.02586,0 -0.304,-38.75 -0.304,-38.75 -3,-6 c -2.08,-4.16001 -4.32974,-6.92 -7.33614,-9 -4.08814,-2.82842 -4.88886,-2.99972 -14,-2.9952 -8.56551,0.004 -10.2478,0.31227 -14.80171,2.71002 -6.99294,3.68196 -11.96735,9.76715 -14.38627,17.59869 -1.80555,5.84569 -1.97588,9.36219 -1.97588,40.79183 l 0,34.39466 -9,0 -9,0 z m 609,0 0,-54.5 9,0 9,0 0.0317,8.25 0.0317,8.25 2.17507,-3 c 3.89539,-5.37276 9.15462,-9.78969 14.65611,-12.30881 6.54539,-2.99712 17.90206,-4.76296 24.35546,-3.787 l 4.75,0.71836 0,8.82176 0,8.82176 -4.25,-1.48063 c -2.8857,-1.00533 -6.8221,-1.35034 -12.26239,-1.07477 -13.58185,0.68797 -22.50912,7.3578 -27.12801,20.26815 -1.57095,4.39102 -1.83907,9.4451 -2.13637,40.27118 l -0.33997,35.25 -8.94163,0 -8.94163,0 0,-54.5 z m -911.71545,5.75 c 0.6114,-30.17612 1.70837,-36.81849 7.45951,-45.16888 7.25131,-10.52858 20.049864,-16.08112 37.066856,-16.08112 11.000269,0 17.558674,1.40101 25.569614,5.46219 l 6.88052,3.48811 2.89053,-2.05824 c 7.95172,-5.66212 28.18001,-8.62741 40.8671,-5.99076 12.98313,2.69817 22.7794,9.92266 27.59589,20.35122 l 0.360049,6.50002 2.842441,29.52784 0.31706,29.78038 -12.81706,-0.28038 -12.81706,-0.28038 -0.5,-28 C 6.2238,573.75207 5.69737,564.56657 4.84397,563.07722 c -3.62819,-6.33186 -11.50151,-9.30041 -20.92068,-7.88792 -3.69339,0.55386 -5.70037,1.6922 -9.77092,5.54196 l -5.1228,4.84492 0.69141,8.32159 c 0.38028,4.57688 0.7272,17.20909 0.77093,28.07159 l 0.07952,19.75 -13.5,0 -13.5,0 0,-26.78811 c 0,-25.79155 -0.0837,-26.9541 -2.25,-31.25 -3.183353,-6.31279 -9.007259,-9.21961 -17.489229,-8.72921 -6.658961,0.385 -9.913232,2.0836 -13.698982,7.15033 -1.951397,2.61168 -2.077525,4.28157 -2.355697,31.18821 l -0.293908,28.42878 -13.574674,0 -13.57468,0 z"
         id="path3378"
         inkscape:connector-curvature="0"
         sodipodi:nodetypes="ssssscccssssssscccsssssssssscsssscccsssssscccccccccccssscsssssssccsssssscccssscccsscsssccccccccccccccccccccccccccccccccccccssssscccccsscsssccccccccccssscccsssscccccsssscssscccccsssscsscccssssscccs" />
      <path
         style="fill:#304560"
         d="m 344.34649,646.19309 c -9.189,-1.82871 -19.54115,-7.47581 -25.76148,-14.05289 -15.8585,-16.76802 -19.52983,-48.84323 -8.26973,-72.24988 3.35791,-6.98016 13.10941,-17.05001 19.78428,-20.43016 15.06425,-7.62853 34.6691,-8.63041 53.72187,-2.74538 l 6.75,2.08494 0,8.41381 0,8.41382 -5.25,-2.43721 c -8.21819,-3.81514 -18.71575,-5.77587 -28.24553,-5.27568 -15.34822,0.80557 -26.04806,8.43346 -31.63546,22.55281 -1.98604,5.01871 -2.27625,7.53707 -2.27625,19.75209 0,12.21502 0.29021,14.73338 2.27625,19.75209 5.5874,14.11935 16.28724,21.74724 31.63546,22.55281 9.52978,0.50019 20.02734,-1.46054 28.24553,-5.27568 l 5.25,-2.43721 0,8.41381 0,8.41382 -6.37817,1.97002 c -13.09326,4.04409 -27.73815,4.99382 -39.84677,2.58407 z m 108.22494,0.40054 c -13.51649,-2.19195 -26.12021,-11.9766 -32.3787,-25.13654 -4.63719,-9.7508 -6.03325,-16.97903 -6.03325,-31.23773 0,-14.33353 1.39517,-21.48587 6.13442,-31.44806 6.75554,-14.20056 18.91557,-22.95172 35.02753,-25.20813 28.08393,-3.93304 50.45143,11.40432 56.37491,38.65619 1.89418,8.71447 1.64238,29.50383 -0.45419,37.5 -7.31151,27.88556 -29.21407,41.65121 -58.67072,36.87427 z m 22,-15.95095 c 12.89298,-5.82405 19.97044,-20.14994 19.97044,-40.42332 0,-19.23123 -6.61138,-33.53393 -18.40223,-39.81042 -5.81554,-3.09572 -19.32802,-3.10236 -25.06821,-0.0123 -12.00992,6.46515 -18.47044,20.39418 -18.47044,39.82274 0,26.16688 11.91404,42.50402 30.97044,42.46827 4.37057,-0.008 7.97422,-0.67813 11,-2.04495 z m 95.02424,15.54078 c -15.26161,-4.28843 -26.59308,-17.32819 -31.68707,-36.4641 -2.37049,-8.9049 -2.38323,-30.01341 -0.0235,-39 2.9419,-11.20387 7.95429,-20.08587 15.11555,-26.78487 8.93916,-8.36214 14.93525,-10.62163 28.07082,-10.57784 13.61625,0.0454 19.71669,2.40623 28.25,10.93261 l 6.24996,6.24491 0,-28.9074 0,-28.90741 9,0 9,0 0,76 0,76 -9,0 -9,0 0,-7.40741 0,-7.4074 -6.25,6.24491 c -4.63369,4.62993 -7.79043,6.82052 -12.20658,8.47067 -7.852,2.93399 -20.15415,3.63286 -27.51918,1.56333 z m 24.86597,-14.92536 c 8.61409,-3.03923 14.92864,-10.29544 18.74359,-21.53874 1.47083,-4.33477 1.8662,-8.46603 1.8662,-19.5 0,-15.48448 -1.25283,-21.05701 -6.6712,-29.67327 -10.16822,-16.16941 -33.64299,-17.3509 -45.07441,-2.26859 -6.49009,8.56286 -8.26624,15.60632 -8.18083,32.44186 0.0617,12.17277 0.41329,15.42015 2.19031,20.23308 3.9447,10.68391 9.98524,17.47983 18.1212,20.3873 4.87708,1.74288 13.9443,1.70393 19.00514,-0.0816 z m 114.60979,15.7637 c -16.78083,-2.22567 -32.65846,-12.74942 -39.40768,-26.11955 -5.13599,-10.17434 -6.52674,-16.49197 -6.53435,-29.68289 -0.008,-13.70269 1.25784,-20.03271 6.02022,-30.10731 7.89774,-16.70732 21.98858,-26.18262 41.57608,-27.95759 31.78611,-2.88038 52.63881,18.56621 52.81084,54.3149 l 0.0349,7.25 -41.12883,0 -41.12883,0 0.67448,5.08451 c 2.25078,16.96718 12.38093,28.68935 27.58047,31.91492 12.21969,2.59319 33.0154,-0.425 45.09135,-6.54435 l 4.91136,-2.48877 0,8.40826 0,8.40827 -3.75,1.48061 c -12.69079,5.01067 -33.87291,7.7469 -46.75001,6.03899 z m 36.21185,-71.80541 c -1.10053,-10.66312 -7.1755,-20.02752 -16.0774,-24.78289 -5.89385,-3.14848 -21.02012,-3.18993 -27.75685,-0.0761 -9.88619,4.56962 -16.54999,13.54176 -18.65116,25.11192 l -0.95341,5.25 32.00339,0 32.00339,0 -0.56796,-5.50297 z m -686.71185,-3.49703 0,-73 46,0 46,0 0,8.5 0,8.5 -36,0 -36,0 0,21.5 0,21.5 34.5,0 34.5,0 0,8.5 0,8.5 -34.5,0 -34.5,0 0,26 0,26 37,0 37,0 0,8.5 0,8.5 -47,0 -47,0 z m 125,18.5 0,-54.5 9,0 9,0 0,8.65004 0,8.65004 2.85115,-3.9359 c 4.03448,-5.56944 8.65296,-9.21442 16.14885,-12.74493 5.81869,-2.74057 7.49576,-3.06252 16,-3.07155 19.61568,-0.0208 30.25809,7.45608 36.228,25.4523 2.03187,6.12503 2.17862,8.79306 2.54398,46.25 l 0.38773,39.75 -9.02585,0 -9.02586,0 -0.304,-38.75 -0.304,-38.75 -3,-6 c -2.08,-4.16001 -4.32974,-6.92 -7.33614,-9 -4.08814,-2.82842 -4.88886,-2.99972 -14,-2.9952 -8.56551,0.004 -10.2478,0.31227 -14.80171,2.71002 -6.99294,3.68196 -11.96735,9.76715 -14.38627,17.59869 -1.80555,5.84569 -1.97588,9.36219 -1.97588,40.79183 l 0,34.39466 -9,0 -9,0 z m 609,0 0,-54.5 9,0 9,0 0.0317,8.25 0.0317,8.25 2.17507,-3 c 3.89539,-5.37276 9.15462,-9.78969 14.65611,-12.30881 6.54539,-2.99712 17.90206,-4.76296 24.35546,-3.787 l 4.75,0.71836 0,8.82176 0,8.82176 -4.25,-1.48063 c -2.8857,-1.00533 -6.8221,-1.35034 -12.26239,-1.07477 -13.58185,0.68797 -22.50912,7.3578 -27.12801,20.26815 -1.57095,4.39102 -1.83907,9.4451 -2.13637,40.27118 l -0.33997,35.25 -8.94163,0 -8.94163,0 0,-54.5 z M 6.9643621,621.71289 c 0,0 -0.3954421,-12.83936 -0.3985121,-26.9102 -0.003,-14.28272 -0.45556,-27.20343 -1.02429,-29.25106 -2.1604,-7.77825 -10.90351,-11.9691 -21.61827,-10.36233 -3.712,0.55665 -5.70231,1.69403 -9.88236,5.64735 l -5.23423,4.95032 -0.70112,-3.73729 c -0.90476,-4.82275 -3.76494,-10.38464 -7.56724,-14.71523 l -3.02082,-3.44052 3.04801,-2.17037 c 8.10737,-5.77296 28.21724,-8.76454 41.02458,-6.1029 12.98313,2.69817 22.7794,9.92266 27.59589,20.35122 3.550504,11.54272 2.641232,24.0161 3.20228,35.99748 l 0.31684,29.75 -12.40018,0 c -6.8201,0 -13.3405779,-0.006 -13.3405779,-0.006 z"
         id="path3376"
         inkscape:connector-curvature="0"
         sodipodi:nodetypes="ssssscccssssssscccsssssssssscsssscccsssssscccccccccccssscsssssssccsssssscccssscccsscsssccccccccccccccccccccccccccccccccccccssssscccccsscsssccccccccccssscccssssccccccsssscsscsscccscc" />
      <path
         style="fill:#2e2e2e"
         d="m 346.91812,646.6246 c -20.6666,-3.45274 -35.23593,-16.96762 -40.94889,-37.9852 -2.36912,-8.71582 -2.40813,-28.0401 -0.0743,-36.79569 7.26505,-27.25527 30.42384,-41.76967 61.17647,-38.34139 5.5,0.61314 13.0375,2.05589 16.75,3.2061 l 6.75,2.0913 0,8.41381 0,8.41382 -5.25,-2.43721 c -13.73266,-6.37513 -32.29718,-7.20241 -43.08527,-1.92 -12.99557,6.36332 -19.6647,19.57263 -19.6647,38.94922 0,19.37659 6.66913,32.5859 19.66473,38.94922 10.78809,5.28241 29.35261,4.45513 43.08527,-1.92 l 5.25,-2.43721 0,8.41381 0,8.41382 -6.50742,2.00994 c -11.68076,3.60782 -26.33537,4.78176 -37.14589,2.97566 z m 105.13425,-0.30841 c -8.31028,-1.90118 -13.03247,-4.01794 -18.97871,-8.5074 -14.1107,-10.65367 -21.49869,-33.20616 -18.69799,-57.07716 3.605,-30.72609 20.95966,-47.47303 49.19576,-47.47303 28.23727,0 45.59074,16.74677 49.19612,47.47613 2.85414,24.32642 -4.72055,46.7494 -19.45707,57.59782 -10.43609,7.68261 -27.84711,11.05172 -41.25811,7.98364 z m 23.69851,-15.96312 c 8.43202,-4.11268 15.56545,-14.7426 17.79984,-26.52453 2.4729,-13.03951 0.58719,-30.11097 -4.41684,-39.98593 -3.05168,-6.02222 -11.07442,-13.36085 -16.32663,-14.93445 -5.04607,-1.51184 -13.94123,-1.52763 -18.3366,-0.0326 -8.60689,2.92761 -15.73259,10.90859 -19.50289,21.84376 -2.69145,7.80613 -2.72157,31.04096 -0.0506,39 3.59221,10.70401 10.10458,18.10805 19.10743,21.72359 4.36625,1.75349 17.21848,1.10876 21.72625,-1.08988 z m 95.87045,16.3378 c -7.35725,-1.5467 -14.86208,-6.00132 -20.65866,-12.26233 -10.54648,-11.39145 -14.79213,-24.08042 -14.79213,-44.20918 0,-20.12876 4.24565,-32.81773 14.79213,-44.20919 9.66911,-10.44379 22.4867,-14.76009 36.80789,-12.395 11.8313,1.9539 18.82015,6.00674 24.94972,14.46837 l 2.85115,3.9359 0,-29.65004 0,-29.65004 9,0 9,0 0,76 0,76 -9,0 -9,0 0,-8.07774 0,-8.07774 -3.27886,4.29888 c -4.52188,5.92858 -10.83685,10.5152 -17.01527,12.35834 -6.62501,1.97637 -17.91077,2.67756 -23.65597,1.46977 z M 598.97455,629.329 c 5.8497,-3.42815 10.87609,-10.19584 13.82146,-18.60964 1.94935,-5.56854 2.27542,-8.50623 2.27542,-20.5 0,-11.99377 -0.32607,-14.93146 -2.27542,-20.5 -2.96125,-8.45917 -7.97549,-15.1816 -13.93826,-18.68656 -4.2899,-2.52164 -5.71976,-2.81344 -13.78632,-2.81344 -8.00691,0 -9.5137,0.30198 -13.65549,2.73677 -12.07503,7.0984 -17.66451,21.81525 -16.59317,43.68909 0.95704,19.54017 7.92561,32.02017 20.49663,36.7074 6.19272,2.30902 17.98317,1.30038 23.65515,-2.02362 z m 106.67274,16.93511 c -27.87144,-5.30362 -44.76014,-28.95711 -42.62119,-59.69315 2.01338,-28.93156 16.81632,-47.74718 41.24108,-52.4204 9.36978,-1.79274 13.99356,-1.78009 22.68878,0.0621 9.61553,2.03714 15.21345,4.99843 21.74913,11.50525 9.51107,9.46907 13.53253,20.12682 14.58109,38.64311 l 0.58659,10.35835 -41.15067,0 c -40.13791,0 -41.15067,0.048 -41.15067,1.95078 0,4.50653 2.4217,12.9368 5.2668,18.33444 3.61871,6.86531 8.13239,11.07 15.68757,14.61367 5.08211,2.3837 6.63222,2.60111 18.54563,2.60111 14.34216,0 21.38274,-1.41493 32.25,-6.4812 l 6.25,-2.91372 0,8.36534 0,8.36534 -7.75,2.51127 c -4.2625,1.38121 -10.17144,3.00105 -13.13097,3.59966 -9.16502,1.85375 -24.94354,2.13933 -33.04317,0.59806 z m 39.63599,-71.04772 c -1.10421,-10.69879 -7.65666,-20.76757 -16.30845,-25.06029 -5.96192,-2.95811 -21.06687,-2.71783 -28.13045,0.44748 -9.28763,4.16193 -16.00311,13.40902 -18.05819,24.86578 l -0.94173,5.25 32.00339,0 32.00339,0 -0.56796,-5.50297 z m -686.71185,-3.49703 0,-73 46,0 46,0 0,8.5 0,8.5 -36,0 -36,0 0,21.5 0,21.5 34.5,0 34.5,0 0,8.5 0,8.5 -34.5,0 -34.5,0 0,26 0,26 37,0 37,0 0,8.5 0,8.5 -47,0 -47,0 0,-73 z m 125,18.5 0,-54.5 9,0 9,0 0,8.65004 0,8.65004 2.85115,-3.9359 c 10.37799,-14.32641 30.91956,-20.00279 48.37875,-13.36882 9.9311,3.77352 15.91116,10.65623 19.98764,23.00464 2.01642,6.10809 2.1703,8.89665 2.55217,46.25 l 0.40638,39.75 -9.08805,0 -9.08804,0 0,-36.6844 c 0,-42.55479 -0.42983,-45.61426 -7.42938,-52.88078 -4.59603,-4.77134 -9.13846,-6.42076 -17.70579,-6.42924 -12.24593,-0.0121 -22.32834,6.12694 -27.55928,16.78051 l -2.80555,5.71391 -0.30641,36.75 -0.30642,36.75 -8.94358,0 -8.94359,0 0,-54.5 z m 609,0 0,-54.5 9,0 9,0 0.004,8.75 0.004,8.75 1.88885,-3.09755 c 7.0236,-11.51808 23.66373,-18.81234 38.64567,-16.94047 l 5.458,0.68193 0,8.81108 0,8.81108 -4.25,-1.48063 c -2.8857,-1.00533 -6.8221,-1.35034 -12.26239,-1.07477 -13.24576,0.67095 -21.79441,6.74458 -26.83899,19.06856 -2.02192,4.93956 -2.15391,7.14637 -2.45053,40.97077 l -0.3135,35.75 -8.94229,0 -8.9423,0 0,-54.5 z"
         id="path3374"
         inkscape:connector-curvature="0" />
      <path
         style="fill:#000000"
         d="m 348.96971,646.66146 c -21.83134,-2.64129 -36.91869,-16.17576 -42.92253,-38.50469 -2.16083,-8.03637 -2.15475,-27.85356 0.011,-35.93741 5.0436,-18.82542 15.41425,-30.12402 33.09899,-36.06059 12.72267,-4.27086 31.88929,-3.60912 48.16424,1.66291 l 3.25,1.05278 0,8.02944 c 0,7.25986 -0.16773,7.95913 -1.75,7.29589 -12.50027,-5.23975 -15.75444,-5.92548 -28.25,-5.95295 -14.44375,-0.0317 -18.608,1.3047 -26.37592,8.46491 -7.96759,7.34427 -11.59342,17.76171 -11.61221,33.36327 -0.0195,16.21591 3.60005,26.44725 12.06039,34.09066 7.47921,6.75701 11.68035,8.05752 25.92774,8.0262 12.49556,-0.0275 15.74973,-0.7132 28.25,-5.95295 1.58227,-0.66324 1.75,0.036 1.75,7.29589 l 0,8.02944 -3.25,1.05278 c -11.76417,3.81083 -27.00126,5.41767 -38.35172,4.04442 z m 106.36314,-0.0112 c -19.10113,-2.16395 -34.45851,-16.85572 -39.38797,-37.68086 -2.13214,-9.00749 -2.12601,-28.51809 0.0118,-37.55087 6.30558,-26.64277 27.06777,-40.78271 55.24318,-37.62296 19.6512,2.20379 35.07176,16.69367 39.9481,37.53709 2.12664,9.09011 2.14309,28.61343 0.0317,37.63674 -2.13582,9.12772 -6.78787,18.00229 -12.73071,24.28597 -10.3576,10.95163 -24.87416,15.4615 -43.1161,13.39489 z m 21.05296,-16.52567 c 12.82223,-6.38959 18.91279,-21.18695 17.96091,-43.63704 -0.74495,-17.56983 -5.97196,-28.90384 -16.26451,-35.26723 -4.50933,-2.78791 -5.53396,-3.00096 -14.43236,-3.00096 -8.63723,0 -10.03588,0.26892 -14.23391,2.73677 -11.31159,6.6496 -16.81495,19.50006 -16.81495,39.26323 0,20.7245 5.98031,33.83778 18.21133,39.93275 7.35619,3.66574 18.18544,3.65408 25.57349,-0.0275 z m 96.88004,16.51179 c -16.44695,-2.43339 -30.5249,-17.39071 -35.27798,-37.48161 -2.1921,-9.2658 -2.1921,-28.60498 0,-37.87078 3.49276,-14.76359 12.44134,-27.54519 23.35869,-33.36407 16.36816,-8.72414 39.01015,-4.8297 49.92382,8.58692 l 4.30105,5.28744 0,-29.53746 0,-29.53746 9,0 9,0 0,76 0,76 -9,0 -9,0 0,-8.0898 0,-8.0898 -3.98124,5.03666 c -8.25964,10.44923 -22.70305,15.37117 -38.32434,13.05994 z m 23.81286,-16.26831 c 12.28346,-5.72014 18.49272,-19.20077 18.49272,-40.14871 0,-27.2952 -10.90267,-42.48046 -30.5,-42.48046 -19.59733,0 -30.5,15.18526 -30.5,42.48046 0,27.2952 10.90267,42.48046 30.5,42.48046 5.23372,0 8.26347,-0.58836 12.00728,-2.33177 z m 112.99272,16.28683 c -8.70544,-1.05829 -17.36904,-4.00132 -23.65702,-8.0363 -5.68739,-3.64959 -14.18919,-12.67326 -16.75295,-17.78131 -5.24875,-10.45765 -7.44775,-24.48673 -6.01257,-38.35872 1.19908,-11.58999 4.00553,-19.74821 9.69088,-28.17093 8.06241,-11.94431 19.85768,-18.83484 35.24599,-20.58991 16.57513,-1.89044 30.71628,2.45121 40.44714,12.41816 9.03194,9.25107 12.78639,19.37223 14.04704,37.86764 l 0.73039,10.71583 -41.25713,0 -41.25713,0 0.64399,5.47935 c 1.35762,11.55128 7.24069,21.72385 15.62413,27.01608 12.15277,7.67171 34.753,7.41434 54.46886,-0.62029 3.87111,-1.57755 7.15088,-2.86983 7.28838,-2.87171 0.1375,-0.002 0.25,3.55988 0.25,7.91504 l 0,7.91847 -6.25,2.06071 c -13.95861,4.60233 -30.74674,6.55787 -43.25,5.03789 z m 35.2461,-71.79895 c -0.95071,-10.48464 -6.06187,-18.89318 -14.4847,-23.82929 -5.38692,-3.15694 -17.24375,-4.28815 -24.97985,-2.38321 -5.44351,1.34041 -12.64446,5.92064 -16.18605,10.29526 -2.75471,3.40267 -6.56167,12.52053 -7.52828,18.03065 l -0.65785,3.75 32.18421,0 32.1842,0 -0.53168,-5.86341 z m -686.7461,-3.13659 0,-73 46,0 46,0 0,8.5 0,8.5 -36,0 -36,0 0,21.5 0,21.5 34.5,0 34.5,0 0,8.5 0,8.5 -34.5,0 -34.5,0 0,26 0,26 37,0 37,0 0,8.5 0,8.5 -47,0 -47,0 0,-73 z m 125,18.5 0,-54.5 8.96107,0 8.96106,0 0.28894,8.6718 0.28893,8.6718 2.90669,-4.20165 c 3.59126,-5.19122 10.97271,-10.7105 17.87411,-13.3649 6.81118,-2.61969 20.99277,-2.75556 28.2192,-0.27035 9.78874,3.36641 16.94597,10.64113 20.54568,20.88295 3.0718,8.73981 3.93738,20.99281 3.94612,55.86035 l 0.008,32.75 -9,0 -9,0 0,-37.3185 c 0,-41.47098 -0.38736,-44.63627 -6.28435,-51.35257 -4.58071,-5.21714 -9.78486,-7.28065 -18.42814,-7.30697 -13.33187,-0.0406 -23.22906,6.0312 -28.48967,17.47804 -2.24501,4.88505 -2.30465,5.84489 -2.59387,41.75 l -0.29603,36.75 -8.95397,0 -8.95397,0 0,-54.5 z m 609,0 0,-54.5 9,0 9,0 0,8.72251 c 0,8.4398 0.0535,8.64237 1.65112,6.25 4.66234,-6.9817 11.67178,-12.6227 18.44867,-14.84697 6.23819,-2.04745 15.14241,-3.11455 20.61841,-2.47095 l 5.2818,0.62077 0,8.47895 c 0,8.34532 -0.035,8.4673 -2.25,7.73983 -1.2375,-0.40651 -5.9357,-0.95407 -10.4404,-1.21679 -13.27611,-0.7743 -22.13017,3.44122 -27.89741,13.28228 -4.96886,8.47871 -5.38751,12.25331 -5.40032,48.69037 l -0.0119,33.75 -9,0 -9,0 0,-54.5 z"
         id="path3372"
         inkscape:connector-curvature="0" />
    </g>
  </g>
</svg>
