<?xml version="1.0" standalone="no"?>
 <!DOCTYPE svg PUBLIC "-//W3C//DTD SVG 1.1//EN" 
 "http://www.w3.org/Graphics/SVG/1.1/DTD/svg11.dtd"> 
<svg xmlns="http://www.w3.org/2000/svg" version="1.1" 
    width="29.7002cm" height="21.0007cm" viewBox="0 0 116930 82680 ">
<title>SVG Picture created as mencoder-panelized-brd.svg date 2016/06/24 14:38:49 </title>
  <desc>Picture generated by PCBNEW </desc>
<g style="fill:#000000; fill-opacity:1;stroke:#000000; stroke-opacity:1;
stroke-linecap:round; stroke-linejoin:round; "
 transform="translate(0 0) scale(1 1)">
</g>
<g style="fill:#000000; fill-opacity:0.0; 
stroke:#000000; stroke-width:-0.000393701; stroke-opacity:1; 
stroke-linecap:round; stroke-linejoin:round;">
</g>
<g style="fill:#000000; fill-opacity:0.0; 
stroke:#000000; stroke-width:39.3701; stroke-opacity:1; 
stroke-linecap:round; stroke-linejoin:round;">
</g>
<g style="fill:#000000; fill-opacity:0.0; 
stroke:#000000; stroke-width:59.0551; stroke-opacity:1; 
stroke-linecap:round; stroke-linejoin:round;">
<rect x="69685.9" y="65357.2" width="42519.7" height="12598.4" rx="0" />
</g>
<g style="fill:#000000; fill-opacity:0.0; 
stroke:#000000; stroke-width:39.3701; stroke-opacity:1; 
stroke-linecap:round; stroke-linejoin:round;">
</g>
<g style="fill:#000000; fill-opacity:0.0; 
stroke:#000000; stroke-width:59.0551; stroke-opacity:1; 
stroke-linecap:round; stroke-linejoin:round;">
<rect x="3937.01" y="3937.01" width="109056" height="74806" rx="0" />
</g>
<g style="fill:#000000; fill-opacity:0.0; 
stroke:#000000; stroke-width:39.3701; stroke-opacity:1; 
stroke-linecap:round; stroke-linejoin:round;">
</g>
<g style="fill:#000000; fill-opacity:0.0; 
stroke:#000000; stroke-width:59.0551; stroke-opacity:1; 
stroke-linecap:round; stroke-linejoin:round;">
<rect x="4724.41" y="4724.41" width="107481" height="73231.2" rx="0" />
</g>
<g style="fill:#000000; fill-opacity:0.0; 
stroke:#000000; stroke-width:39.3701; stroke-opacity:1; 
stroke-linecap:round; stroke-linejoin:round;">
</g>
<g style="fill:#000000; fill-opacity:0.0; 
stroke:#000000; stroke-width:59.0551; stroke-opacity:1; 
stroke-linecap:round; stroke-linejoin:round;">
<path d="M23622 4724
L23622 3937
" />
</g>
<g style="fill:#000000; fill-opacity:0.0; 
stroke:#000000; stroke-width:39.3701; stroke-opacity:1; 
stroke-linecap:round; stroke-linejoin:round;">
</g>
<g style="fill:#000000; fill-opacity:0.0; 
stroke:#000000; stroke-width:59.0551; stroke-opacity:1; 
stroke-linecap:round; stroke-linejoin:round;">
<path d="M43307 4724
L43307 3937
" />
</g>
<g style="fill:#000000; fill-opacity:0.0; 
stroke:#000000; stroke-width:39.3701; stroke-opacity:1; 
stroke-linecap:round; stroke-linejoin:round;">
</g>
<g style="fill:#000000; fill-opacity:0.0; 
stroke:#000000; stroke-width:59.0551; stroke-opacity:1; 
stroke-linecap:round; stroke-linejoin:round;">
<path d="M62992 4724
L62992 3937
" />
</g>
<g style="fill:#000000; fill-opacity:0.0; 
stroke:#000000; stroke-width:39.3701; stroke-opacity:1; 
stroke-linecap:round; stroke-linejoin:round;">
</g>
<g style="fill:#000000; fill-opacity:0.0; 
stroke:#000000; stroke-width:59.0551; stroke-opacity:1; 
stroke-linecap:round; stroke-linejoin:round;">
<path d="M82677 4724
L82677 3937
" />
</g>
<g style="fill:#000000; fill-opacity:0.0; 
stroke:#000000; stroke-width:39.3701; stroke-opacity:1; 
stroke-linecap:round; stroke-linejoin:round;">
</g>
<g style="fill:#000000; fill-opacity:0.0; 
stroke:#000000; stroke-width:59.0551; stroke-opacity:1; 
stroke-linecap:round; stroke-linejoin:round;">
<path d="M102362 4724
L102362 3937
" />
</g>
<g style="fill:#000000; fill-opacity:0.0; 
stroke:#000000; stroke-width:39.3701; stroke-opacity:1; 
stroke-linecap:round; stroke-linejoin:round;">
</g>
<g style="fill:#000000; fill-opacity:0.0; 
stroke:#000000; stroke-width:59.0551; stroke-opacity:1; 
stroke-linecap:round; stroke-linejoin:round;">
<path d="M14169 4562
L13877 4562
" />
<path d="M14023 4562
L14023 4050
L13974 4123
L13925 4172
L13877 4196
" />
</g>
<g style="fill:#000000; fill-opacity:0.0; 
stroke:#000000; stroke-width:39.3701; stroke-opacity:1; 
stroke-linecap:round; stroke-linejoin:round;">
</g>
<g style="fill:#000000; fill-opacity:0.0; 
stroke:#000000; stroke-width:59.0551; stroke-opacity:1; 
stroke-linecap:round; stroke-linejoin:round;">
<path d="M33562 4099
L33586 4074
L33635 4050
L33757 4050
L33805 4074
L33830 4099
L33854 4147
L33854 4196
L33830 4269
L33537 4562
L33854 4562
" />
</g>
<g style="fill:#000000; fill-opacity:0.0; 
stroke:#000000; stroke-width:39.3701; stroke-opacity:1; 
stroke-linecap:round; stroke-linejoin:round;">
</g>
<g style="fill:#000000; fill-opacity:0.0; 
stroke:#000000; stroke-width:59.0551; stroke-opacity:1; 
stroke-linecap:round; stroke-linejoin:round;">
<path d="M53222 4050
L53539 4050
L53368 4245
L53442 4245
L53490 4269
L53515 4294
L53539 4342
L53539 4464
L53515 4513
L53490 4537
L53442 4562
L53295 4562
L53247 4537
L53222 4513
" />
</g>
<g style="fill:#000000; fill-opacity:0.0; 
stroke:#000000; stroke-width:39.3701; stroke-opacity:1; 
stroke-linecap:round; stroke-linejoin:round;">
</g>
<g style="fill:#000000; fill-opacity:0.0; 
stroke:#000000; stroke-width:59.0551; stroke-opacity:1; 
stroke-linecap:round; stroke-linejoin:round;">
<path d="M73175 4221
L73175 4562
" />
<path d="M73053 4026
L72932 4391
L73248 4391
" />
</g>
<g style="fill:#000000; fill-opacity:0.0; 
stroke:#000000; stroke-width:39.3701; stroke-opacity:1; 
stroke-linecap:round; stroke-linejoin:round;">
</g>
<g style="fill:#000000; fill-opacity:0.0; 
stroke:#000000; stroke-width:59.0551; stroke-opacity:1; 
stroke-linecap:round; stroke-linejoin:round;">
<path d="M92885 4050
L92641 4050
L92617 4294
L92641 4269
L92690 4245
L92812 4245
L92860 4269
L92885 4294
L92909 4342
L92909 4464
L92885 4513
L92860 4537
L92812 4562
L92690 4562
L92641 4537
L92617 4513
" />
</g>
<g style="fill:#000000; fill-opacity:0.0; 
stroke:#000000; stroke-width:39.3701; stroke-opacity:1; 
stroke-linecap:round; stroke-linejoin:round;">
</g>
<g style="fill:#000000; fill-opacity:0.0; 
stroke:#000000; stroke-width:59.0551; stroke-opacity:1; 
stroke-linecap:round; stroke-linejoin:round;">
<path d="M112545 4050
L112448 4050
L112399 4074
L112375 4099
L112326 4172
L112302 4269
L112302 4464
L112326 4513
L112350 4537
L112399 4562
L112497 4562
L112545 4537
L112570 4513
L112594 4464
L112594 4342
L112570 4294
L112545 4269
L112497 4245
L112399 4245
L112350 4269
L112326 4294
L112302 4342
" />
</g>
<g style="fill:#000000; fill-opacity:0.0; 
stroke:#000000; stroke-width:39.3701; stroke-opacity:1; 
stroke-linecap:round; stroke-linejoin:round;">
</g>
<g style="fill:#000000; fill-opacity:0.0; 
stroke:#000000; stroke-width:59.0551; stroke-opacity:1; 
stroke-linecap:round; stroke-linejoin:round;">
<path d="M23622 77955
L23622 78742
" />
</g>
<g style="fill:#000000; fill-opacity:0.0; 
stroke:#000000; stroke-width:39.3701; stroke-opacity:1; 
stroke-linecap:round; stroke-linejoin:round;">
</g>
<g style="fill:#000000; fill-opacity:0.0; 
stroke:#000000; stroke-width:59.0551; stroke-opacity:1; 
stroke-linecap:round; stroke-linejoin:round;">
<path d="M43307 77955
L43307 78742
" />
</g>
<g style="fill:#000000; fill-opacity:0.0; 
stroke:#000000; stroke-width:39.3701; stroke-opacity:1; 
stroke-linecap:round; stroke-linejoin:round;">
</g>
<g style="fill:#000000; fill-opacity:0.0; 
stroke:#000000; stroke-width:59.0551; stroke-opacity:1; 
stroke-linecap:round; stroke-linejoin:round;">
<path d="M62992 77955
L62992 78742
" />
</g>
<g style="fill:#000000; fill-opacity:0.0; 
stroke:#000000; stroke-width:39.3701; stroke-opacity:1; 
stroke-linecap:round; stroke-linejoin:round;">
</g>
<g style="fill:#000000; fill-opacity:0.0; 
stroke:#000000; stroke-width:59.0551; stroke-opacity:1; 
stroke-linecap:round; stroke-linejoin:round;">
<path d="M82677 77955
L82677 78742
" />
</g>
<g style="fill:#000000; fill-opacity:0.0; 
stroke:#000000; stroke-width:39.3701; stroke-opacity:1; 
stroke-linecap:round; stroke-linejoin:round;">
</g>
<g style="fill:#000000; fill-opacity:0.0; 
stroke:#000000; stroke-width:59.0551; stroke-opacity:1; 
stroke-linecap:round; stroke-linejoin:round;">
<path d="M102362 77955
L102362 78742
" />
</g>
<g style="fill:#000000; fill-opacity:0.0; 
stroke:#000000; stroke-width:39.3701; stroke-opacity:1; 
stroke-linecap:round; stroke-linejoin:round;">
</g>
<g style="fill:#000000; fill-opacity:0.0; 
stroke:#000000; stroke-width:59.0551; stroke-opacity:1; 
stroke-linecap:round; stroke-linejoin:round;">
<path d="M14169 78580
L13877 78580
" />
<path d="M14023 78580
L14023 78069
L13974 78142
L13925 78190
L13877 78215
" />
</g>
<g style="fill:#000000; fill-opacity:0.0; 
stroke:#000000; stroke-width:39.3701; stroke-opacity:1; 
stroke-linecap:round; stroke-linejoin:round;">
</g>
<g style="fill:#000000; fill-opacity:0.0; 
stroke:#000000; stroke-width:59.0551; stroke-opacity:1; 
stroke-linecap:round; stroke-linejoin:round;">
<path d="M33562 78117
L33586 78093
L33635 78069
L33757 78069
L33805 78093
L33830 78117
L33854 78166
L33854 78215
L33830 78288
L33537 78580
L33854 78580
" />
</g>
<g style="fill:#000000; fill-opacity:0.0; 
stroke:#000000; stroke-width:39.3701; stroke-opacity:1; 
stroke-linecap:round; stroke-linejoin:round;">
</g>
<g style="fill:#000000; fill-opacity:0.0; 
stroke:#000000; stroke-width:59.0551; stroke-opacity:1; 
stroke-linecap:round; stroke-linejoin:round;">
<path d="M53222 78069
L53539 78069
L53368 78263
L53442 78263
L53490 78288
L53515 78312
L53539 78361
L53539 78483
L53515 78532
L53490 78556
L53442 78580
L53295 78580
L53247 78556
L53222 78532
" />
</g>
<g style="fill:#000000; fill-opacity:0.0; 
stroke:#000000; stroke-width:39.3701; stroke-opacity:1; 
stroke-linecap:round; stroke-linejoin:round;">
</g>
<g style="fill:#000000; fill-opacity:0.0; 
stroke:#000000; stroke-width:59.0551; stroke-opacity:1; 
stroke-linecap:round; stroke-linejoin:round;">
<path d="M73175 78239
L73175 78580
" />
<path d="M73053 78044
L72932 78410
L73248 78410
" />
</g>
<g style="fill:#000000; fill-opacity:0.0; 
stroke:#000000; stroke-width:39.3701; stroke-opacity:1; 
stroke-linecap:round; stroke-linejoin:round;">
</g>
<g style="fill:#000000; fill-opacity:0.0; 
stroke:#000000; stroke-width:59.0551; stroke-opacity:1; 
stroke-linecap:round; stroke-linejoin:round;">
<path d="M92885 78069
L92641 78069
L92617 78312
L92641 78288
L92690 78263
L92812 78263
L92860 78288
L92885 78312
L92909 78361
L92909 78483
L92885 78532
L92860 78556
L92812 78580
L92690 78580
L92641 78556
L92617 78532
" />
</g>
<g style="fill:#000000; fill-opacity:0.0; 
stroke:#000000; stroke-width:39.3701; stroke-opacity:1; 
stroke-linecap:round; stroke-linejoin:round;">
</g>
<g style="fill:#000000; fill-opacity:0.0; 
stroke:#000000; stroke-width:59.0551; stroke-opacity:1; 
stroke-linecap:round; stroke-linejoin:round;">
<path d="M112545 78069
L112448 78069
L112399 78093
L112375 78117
L112326 78190
L112302 78288
L112302 78483
L112326 78532
L112350 78556
L112399 78580
L112497 78580
L112545 78556
L112570 78532
L112594 78483
L112594 78361
L112570 78312
L112545 78288
L112497 78263
L112399 78263
L112350 78288
L112326 78312
L112302 78361
" />
</g>
<g style="fill:#000000; fill-opacity:0.0; 
stroke:#000000; stroke-width:39.3701; stroke-opacity:1; 
stroke-linecap:round; stroke-linejoin:round;">
</g>
<g style="fill:#000000; fill-opacity:0.0; 
stroke:#000000; stroke-width:59.0551; stroke-opacity:1; 
stroke-linecap:round; stroke-linejoin:round;">
<path d="M3937 23622
L4724 23622
" />
</g>
<g style="fill:#000000; fill-opacity:0.0; 
stroke:#000000; stroke-width:39.3701; stroke-opacity:1; 
stroke-linecap:round; stroke-linejoin:round;">
</g>
<g style="fill:#000000; fill-opacity:0.0; 
stroke:#000000; stroke-width:59.0551; stroke-opacity:1; 
stroke-linecap:round; stroke-linejoin:round;">
<path d="M3937 43307
L4724 43307
" />
</g>
<g style="fill:#000000; fill-opacity:0.0; 
stroke:#000000; stroke-width:39.3701; stroke-opacity:1; 
stroke-linecap:round; stroke-linejoin:round;">
</g>
<g style="fill:#000000; fill-opacity:0.0; 
stroke:#000000; stroke-width:59.0551; stroke-opacity:1; 
stroke-linecap:round; stroke-linejoin:round;">
<path d="M3937 62992
L4724 62992
" />
</g>
<g style="fill:#000000; fill-opacity:0.0; 
stroke:#000000; stroke-width:39.3701; stroke-opacity:1; 
stroke-linecap:round; stroke-linejoin:round;">
</g>
<g style="fill:#000000; fill-opacity:0.0; 
stroke:#000000; stroke-width:59.0551; stroke-opacity:1; 
stroke-linecap:round; stroke-linejoin:round;">
<path d="M4208 13864
L4452 13864
" />
<path d="M4160 14011
L4330 13499
L4501 14011
" />
</g>
<g style="fill:#000000; fill-opacity:0.0; 
stroke:#000000; stroke-width:39.3701; stroke-opacity:1; 
stroke-linecap:round; stroke-linejoin:round;">
</g>
<g style="fill:#000000; fill-opacity:0.0; 
stroke:#000000; stroke-width:59.0551; stroke-opacity:1; 
stroke-linecap:round; stroke-linejoin:round;">
<path d="M4367 33428
L4440 33452
L4464 33476
L4489 33525
L4489 33598
L4464 33647
L4440 33671
L4391 33696
L4196 33696
L4196 33184
L4367 33184
L4416 33208
L4440 33233
L4464 33281
L4464 33330
L4440 33379
L4416 33403
L4367 33428
L4196 33428
" />
</g>
<g style="fill:#000000; fill-opacity:0.0; 
stroke:#000000; stroke-width:39.3701; stroke-opacity:1; 
stroke-linecap:round; stroke-linejoin:round;">
</g>
<g style="fill:#000000; fill-opacity:0.0; 
stroke:#000000; stroke-width:59.0551; stroke-opacity:1; 
stroke-linecap:round; stroke-linejoin:round;">
<path d="M4489 53332
L4464 53356
L4391 53381
L4342 53381
L4269 53356
L4221 53308
L4196 53259
L4172 53161
L4172 53088
L4196 52991
L4221 52942
L4269 52893
L4342 52869
L4391 52869
L4464 52893
L4489 52918
" />
</g>
<g style="fill:#000000; fill-opacity:0.0; 
stroke:#000000; stroke-width:39.3701; stroke-opacity:1; 
stroke-linecap:round; stroke-linejoin:round;">
</g>
<g style="fill:#000000; fill-opacity:0.0; 
stroke:#000000; stroke-width:59.0551; stroke-opacity:1; 
stroke-linecap:round; stroke-linejoin:round;">
<path d="M4196 73066
L4196 72554
L4318 72554
L4391 72578
L4440 72627
L4464 72676
L4489 72773
L4489 72846
L4464 72944
L4440 72993
L4391 73041
L4318 73066
L4196 73066
" />
</g>
<g style="fill:#000000; fill-opacity:0.0; 
stroke:#000000; stroke-width:39.3701; stroke-opacity:1; 
stroke-linecap:round; stroke-linejoin:round;">
</g>
<g style="fill:#000000; fill-opacity:0.0; 
stroke:#000000; stroke-width:59.0551; stroke-opacity:1; 
stroke-linecap:round; stroke-linejoin:round;">
<path d="M112992 23622
L112205 23622
" />
</g>
<g style="fill:#000000; fill-opacity:0.0; 
stroke:#000000; stroke-width:39.3701; stroke-opacity:1; 
stroke-linecap:round; stroke-linejoin:round;">
</g>
<g style="fill:#000000; fill-opacity:0.0; 
stroke:#000000; stroke-width:59.0551; stroke-opacity:1; 
stroke-linecap:round; stroke-linejoin:round;">
<path d="M112992 43307
L112205 43307
" />
</g>
<g style="fill:#000000; fill-opacity:0.0; 
stroke:#000000; stroke-width:39.3701; stroke-opacity:1; 
stroke-linecap:round; stroke-linejoin:round;">
</g>
<g style="fill:#000000; fill-opacity:0.0; 
stroke:#000000; stroke-width:59.0551; stroke-opacity:1; 
stroke-linecap:round; stroke-linejoin:round;">
<path d="M112992 62992
L112205 62992
" />
</g>
<g style="fill:#000000; fill-opacity:0.0; 
stroke:#000000; stroke-width:39.3701; stroke-opacity:1; 
stroke-linecap:round; stroke-linejoin:round;">
</g>
<g style="fill:#000000; fill-opacity:0.0; 
stroke:#000000; stroke-width:59.0551; stroke-opacity:1; 
stroke-linecap:round; stroke-linejoin:round;">
<path d="M112477 13864
L112721 13864
" />
<path d="M112428 14011
L112599 13499
L112769 14011
" />
</g>
<g style="fill:#000000; fill-opacity:0.0; 
stroke:#000000; stroke-width:39.3701; stroke-opacity:1; 
stroke-linecap:round; stroke-linejoin:round;">
</g>
<g style="fill:#000000; fill-opacity:0.0; 
stroke:#000000; stroke-width:59.0551; stroke-opacity:1; 
stroke-linecap:round; stroke-linejoin:round;">
<path d="M112635 33428
L112708 33452
L112733 33476
L112757 33525
L112757 33598
L112733 33647
L112708 33671
L112660 33696
L112465 33696
L112465 33184
L112635 33184
L112684 33208
L112708 33233
L112733 33281
L112733 33330
L112708 33379
L112684 33403
L112635 33428
L112465 33428
" />
</g>
<g style="fill:#000000; fill-opacity:0.0; 
stroke:#000000; stroke-width:39.3701; stroke-opacity:1; 
stroke-linecap:round; stroke-linejoin:round;">
</g>
<g style="fill:#000000; fill-opacity:0.0; 
stroke:#000000; stroke-width:59.0551; stroke-opacity:1; 
stroke-linecap:round; stroke-linejoin:round;">
<path d="M112757 53332
L112733 53356
L112660 53381
L112611 53381
L112538 53356
L112489 53308
L112465 53259
L112440 53161
L112440 53088
L112465 52991
L112489 52942
L112538 52893
L112611 52869
L112660 52869
L112733 52893
L112757 52918
" />
</g>
<g style="fill:#000000; fill-opacity:0.0; 
stroke:#000000; stroke-width:39.3701; stroke-opacity:1; 
stroke-linecap:round; stroke-linejoin:round;">
</g>
<g style="fill:#000000; fill-opacity:0.0; 
stroke:#000000; stroke-width:59.0551; stroke-opacity:1; 
stroke-linecap:round; stroke-linejoin:round;">
<path d="M112465 73066
L112465 72554
L112587 72554
L112660 72578
L112708 72627
L112733 72676
L112757 72773
L112757 72846
L112733 72944
L112708 72993
L112660 73041
L112587 73066
L112465 73066
" />
</g>
<g style="fill:#000000; fill-opacity:0.0; 
stroke:#000000; stroke-width:39.3701; stroke-opacity:1; 
stroke-linecap:round; stroke-linejoin:round;">
</g>
<g style="fill:#000000; fill-opacity:0.0; 
stroke:#000000; stroke-width:59.0551; stroke-opacity:1; 
stroke-linecap:round; stroke-linejoin:round;">
<path d="M78881 76293
L78881 75703
L79022 75703
L79106 75731
L79162 75787
L79190 75843
L79219 75956
L79219 76040
L79190 76153
L79162 76209
L79106 76265
L79022 76293
L78881 76293
" />
<path d="M79725 76293
L79725 75984
L79697 75928
L79640 75899
L79528 75899
L79472 75928
" />
<path d="M79725 76265
L79669 76293
L79528 76293
L79472 76265
L79444 76209
L79444 76153
L79472 76096
L79528 76068
L79669 76068
L79725 76040
" />
<path d="M79922 75899
L80147 75899
" />
<path d="M80006 75703
L80006 76209
L80034 76265
L80090 76293
L80147 76293
" />
<path d="M80568 76265
L80512 76293
L80400 76293
L80343 76265
L80315 76209
L80315 75984
L80343 75928
L80400 75899
L80512 75899
L80568 75928
L80597 75984
L80597 76040
L80315 76096
" />
<path d="M80850 76237
L80878 76265
L80850 76293
L80822 76265
L80850 76237
L80850 76293
" />
<path d="M80850 75928
L80878 75956
L80850 75984
L80822 75956
L80850 75928
L80850 75984
" />
</g>
<g style="fill:#000000; fill-opacity:0.0; 
stroke:#000000; stroke-width:39.3701; stroke-opacity:1; 
stroke-linecap:round; stroke-linejoin:round;">
</g>
<g style="fill:#000000; fill-opacity:0.0; 
stroke:#000000; stroke-width:59.0551; stroke-opacity:1; 
stroke-linecap:round; stroke-linejoin:round;">
<path d="M69685 76577
L112205 76577
" />
</g>
<g style="fill:#000000; fill-opacity:0.0; 
stroke:#000000; stroke-width:39.3701; stroke-opacity:1; 
stroke-linecap:round; stroke-linejoin:round;">
</g>
<g style="fill:#000000; fill-opacity:0.0; 
stroke:#000000; stroke-width:59.0551; stroke-opacity:1; 
stroke-linecap:round; stroke-linejoin:round;">
<path d="M70220 77395
L70220 76805
" />
<path d="M70557 77395
L70304 77058
" />
<path d="M70557 76805
L70220 77142
" />
<path d="M70810 77395
L70810 77002
" />
<path d="M70810 76805
L70782 76833
L70810 76861
L70838 76833
L70810 76805
L70810 76861
" />
<path d="M71429 77339
L71401 77367
L71316 77395
L71260 77395
L71176 77367
L71120 77311
L71091 77255
L71063 77142
L71063 77058
L71091 76946
L71120 76889
L71176 76833
L71260 76805
L71316 76805
L71401 76833
L71429 76861
" />
<path d="M71935 77395
L71935 77086
L71907 77030
L71851 77002
L71738 77002
L71682 77030
" />
<path d="M71935 77367
L71879 77395
L71738 77395
L71682 77367
L71654 77311
L71654 77255
L71682 77199
L71738 77171
L71879 77171
L71935 77142
" />
<path d="M72469 77395
L72469 76805
" />
<path d="M72469 77367
L72413 77395
L72301 77395
L72244 77367
L72216 77339
L72188 77283
L72188 77114
L72216 77058
L72244 77030
L72301 77002
L72413 77002
L72469 77030
" />
<path d="M73201 77086
L73397 77086
" />
<path d="M73482 77395
L73201 77395
L73201 76805
L73482 76805
" />
<path d="M73735 77339
L73763 77367
L73735 77395
L73707 77367
L73735 77339
L73735 77395
" />
<path d="M74016 77395
L74016 76805
L74157 76805
L74241 76833
L74297 76889
L74325 76946
L74354 77058
L74354 77142
L74325 77255
L74297 77311
L74241 77367
L74157 77395
L74016 77395
" />
<path d="M74607 77339
L74635 77367
L74607 77395
L74579 77367
L74607 77339
L74607 77395
" />
<path d="M74860 77227
L75141 77227
" />
<path d="M74804 77395
L75000 76805
L75197 77395
" />
<path d="M75394 77339
L75422 77367
L75394 77395
L75366 77367
L75394 77339
L75394 77395
" />
<path d="M76575 77002
L76575 77592
" />
<path d="M76575 77030
L76631 77002
L76744 77002
L76800 77030
L76828 77058
L76856 77114
L76856 77283
L76828 77339
L76800 77367
L76744 77395
L76631 77395
L76575 77367
" />
<path d="M77363 77367
L77306 77395
L77194 77395
L77138 77367
L77109 77339
L77081 77283
L77081 77114
L77109 77058
L77138 77030
L77194 77002
L77306 77002
L77363 77030
" />
<path d="M77616 77395
L77616 76805
" />
<path d="M77616 77030
L77672 77002
L77784 77002
L77841 77030
L77869 77058
L77897 77114
L77897 77283
L77869 77339
L77841 77367
L77784 77395
L77672 77395
L77616 77367
" />
<path d="M78150 77002
L78150 77395
" />
<path d="M78150 77058
L78178 77030
L78234 77002
L78319 77002
L78375 77030
L78403 77086
L78403 77395
" />
<path d="M78909 77367
L78853 77395
L78741 77395
L78684 77367
L78656 77311
L78656 77086
L78684 77030
L78741 77002
L78853 77002
L78909 77030
L78937 77086
L78937 77142
L78656 77199
" />
<path d="M79134 77002
L79247 77395
L79359 77114
L79472 77395
L79584 77002
" />
<path d="M80512 77002
L80512 77395
" />
<path d="M80372 76777
L80231 77199
L80597 77199
" />
<path d="M80822 77339
L80850 77367
L80822 77395
L80793 77367
L80822 77339
L80822 77395
" />
<path d="M81215 76805
L81271 76805
L81328 76833
L81356 76861
L81384 76917
L81412 77030
L81412 77171
L81384 77283
L81356 77339
L81328 77367
L81271 77395
L81215 77395
L81159 77367
L81131 77339
L81103 77283
L81075 77171
L81075 77030
L81103 76917
L81131 76861
L81159 76833
L81215 76805
" />
<path d="M81665 77339
L81693 77367
L81665 77395
L81637 77367
L81665 77339
L81665 77395
" />
<path d="M81918 76861
L81946 76833
L82003 76805
L82143 76805
L82199 76833
L82228 76861
L82256 76917
L82256 76974
L82228 77058
L81890 77395
L82256 77395
" />
<path d="M82509 77171
L82959 77171
" />
<path d="M83212 77367
L83268 77395
L83381 77395
L83437 77367
L83465 77311
L83465 77283
L83437 77227
L83381 77199
L83296 77199
L83240 77171
L83212 77114
L83212 77086
L83240 77030
L83296 77002
L83381 77002
L83437 77030
" />
<path d="M83634 77002
L83859 77002
" />
<path d="M83718 76805
L83718 77311
L83746 77367
L83802 77395
L83859 77395
" />
<path d="M84309 77395
L84309 77086
L84280 77030
L84224 77002
L84112 77002
L84055 77030
" />
<path d="M84309 77367
L84252 77395
L84112 77395
L84055 77367
L84027 77311
L84027 77255
L84055 77199
L84112 77171
L84252 77171
L84309 77142
" />
<path d="M84590 77395
L84590 76805
" />
<path d="M84590 77030
L84646 77002
L84759 77002
L84815 77030
L84843 77058
L84871 77114
L84871 77283
L84843 77339
L84815 77367
L84759 77395
L84646 77395
L84590 77367
" />
<path d="M85208 77395
L85152 77367
L85124 77311
L85124 76805
" />
<path d="M85658 77367
L85602 77395
L85490 77395
L85433 77367
L85405 77311
L85405 77086
L85433 77030
L85490 77002
L85602 77002
L85658 77030
L85687 77086
L85687 77142
L85405 77199
" />
</g>
<g style="fill:#000000; fill-opacity:0.0; 
stroke:#000000; stroke-width:39.3701; stroke-opacity:1; 
stroke-linecap:round; stroke-linejoin:round;">
</g>
<g style="fill:#000000; fill-opacity:0.0; 
stroke:#000000; stroke-width:59.0551; stroke-opacity:1; 
stroke-linecap:round; stroke-linejoin:round;">
<path d="M69685 75396
L112205 75396
" />
</g>
<g style="fill:#000000; fill-opacity:0.0; 
stroke:#000000; stroke-width:39.3701; stroke-opacity:1; 
stroke-linecap:round; stroke-linejoin:round;">
</g>
<g style="fill:#000000; fill-opacity:0.0; 
stroke:#000000; stroke-width:118.11; stroke-opacity:1; 
stroke-linecap:round; stroke-linejoin:round;">
<path d="M104022 76293
L103825 76012
" />
<path d="M103684 76293
L103684 75703
L103909 75703
L103965 75731
L103994 75759
L104022 75815
L104022 75899
L103994 75956
L103965 75984
L103909 76012
L103684 76012
" />
<path d="M104500 76265
L104444 76293
L104331 76293
L104275 76265
L104247 76209
L104247 75984
L104275 75928
L104331 75899
L104444 75899
L104500 75928
L104528 75984
L104528 76040
L104247 76096
" />
<path d="M104725 75899
L104865 76293
L105006 75899
" />
<path d="M105231 76237
L105259 76265
L105231 76293
L105203 76265
L105231 76237
L105231 76293
" />
<path d="M105231 75928
L105259 75956
L105231 75984
L105203 75956
L105231 75928
L105231 75984
" />
<path d="M106075 75703
L106131 75703
L106187 75731
L106215 75759
L106243 75815
L106271 75928
L106271 76068
L106243 76181
L106215 76237
L106187 76265
L106131 76293
L106075 76293
L106018 76265
L105990 76237
L105962 76181
L105934 76068
L105934 75928
L105962 75815
L105990 75759
L106018 75731
L106075 75703
" />
<path d="M106525 76237
L106553 76265
L106525 76293
L106496 76265
L106525 76237
L106525 76293
" />
<path d="M107115 76293
L106778 76293
" />
<path d="M106946 76293
L106946 75703
L106890 75787
L106834 75843
L106778 75871
" />
</g>
<g style="fill:#000000; fill-opacity:0.0; 
stroke:#000000; stroke-width:39.3701; stroke-opacity:1; 
stroke-linecap:round; stroke-linejoin:round;">
</g>
<g style="fill:#000000; fill-opacity:0.0; 
stroke:#000000; stroke-width:59.0551; stroke-opacity:1; 
stroke-linecap:round; stroke-linejoin:round;">
<path d="M70192 76265
L70276 76293
L70417 76293
L70473 76265
L70501 76237
L70529 76181
L70529 76124
L70501 76068
L70473 76040
L70417 76012
L70304 75984
L70248 75956
L70220 75928
L70192 75871
L70192 75815
L70220 75759
L70248 75731
L70304 75703
L70445 75703
L70529 75731
" />
<path d="M70782 76293
L70782 75899
" />
<path d="M70782 75703
L70754 75731
L70782 75759
L70810 75731
L70782 75703
L70782 75759
" />
<path d="M71007 75899
L71316 75899
L71007 76293
L71316 76293
" />
<path d="M71766 76265
L71710 76293
L71598 76293
L71541 76265
L71513 76209
L71513 75984
L71541 75928
L71598 75899
L71710 75899
L71766 75928
L71795 75984
L71795 76040
L71513 76096
" />
<path d="M72048 76237
L72076 76265
L72048 76293
L72019 76265
L72048 76237
L72048 76293
" />
<path d="M72048 75928
L72076 75956
L72048 75984
L72019 75956
L72048 75928
L72048 75984
" />
<path d="M72751 76124
L73032 76124
" />
<path d="M72694 76293
L72891 75703
L73088 76293
" />
<path d="M73538 75899
L73538 76293
" />
<path d="M73397 75674
L73257 76096
L73622 76096
" />
</g>
<g style="fill:#000000; fill-opacity:0.0; 
stroke:#000000; stroke-width:39.3701; stroke-opacity:1; 
stroke-linecap:round; stroke-linejoin:round;">
</g>
<g style="fill:#000000; fill-opacity:0.0; 
stroke:#000000; stroke-width:59.0551; stroke-opacity:1; 
stroke-linecap:round; stroke-linejoin:round;">
<path d="M103684 77395
L103684 76805
" />
<path d="M104219 77395
L104219 76805
" />
<path d="M104219 77367
L104162 77395
L104050 77395
L103994 77367
L103965 77339
L103937 77283
L103937 77114
L103965 77058
L103994 77030
L104050 77002
L104162 77002
L104219 77030
" />
<path d="M104500 77339
L104528 77367
L104500 77395
L104472 77367
L104500 77339
L104500 77395
" />
<path d="M104500 77030
L104528 77058
L104500 77086
L104472 77058
L104500 77030
L104500 77086
" />
<path d="M105540 77395
L105203 77395
" />
<path d="M105372 77395
L105372 76805
L105315 76889
L105259 76946
L105203 76974
" />
<path d="M106215 76777
L105709 77536
" />
<path d="M106721 77395
L106384 77395
" />
<path d="M106553 77395
L106553 76805
L106496 76889
L106440 76946
L106384 76974
" />
</g>
<g style="fill:#000000; fill-opacity:0.0; 
stroke:#000000; stroke-width:39.3701; stroke-opacity:1; 
stroke-linecap:round; stroke-linejoin:round;">
</g>
<g style="fill:#000000; fill-opacity:0.0; 
stroke:#000000; stroke-width:59.0551; stroke-opacity:1; 
stroke-linecap:round; stroke-linejoin:round;">
<path d="M69685 73821
L112205 73821
" />
</g>
<g style="fill:#000000; fill-opacity:0.0; 
stroke:#000000; stroke-width:39.3701; stroke-opacity:1; 
stroke-linecap:round; stroke-linejoin:round;">
</g>
<g style="fill:#000000; fill-opacity:0.0; 
stroke:#000000; stroke-width:157.48; stroke-opacity:1; 
stroke-linecap:round; stroke-linejoin:round;">
<path d="M70257 74099
L70707 74099
" />
<path d="M70384 74886
L70482 74099
" />
<path d="M70871 74886
L70937 74361
" />
<path d="M70970 74099
L70927 74136
L70960 74174
L71002 74136
L70970 74099
L70960 74174
" />
<path d="M71199 74361
L71499 74361
" />
<path d="M71345 74099
L71260 74774
L71288 74849
L71359 74886
L71434 74886
" />
<path d="M71809 74886
L71738 74849
L71710 74774
L71795 74099
" />
<path d="M72413 74849
L72334 74886
L72184 74886
L72113 74849
L72085 74774
L72123 74474
L72169 74399
L72249 74361
L72399 74361
L72469 74399
L72498 74474
L72488 74549
L72104 74624
" />
<path d="M72793 74811
L72826 74849
L72783 74886
L72751 74849
L72793 74811
L72783 74886
" />
<path d="M72844 74399
L72877 74436
L72835 74474
L72802 74436
L72844 74399
L72835 74474
" />
<path d="M73758 74886
L73824 74361
" />
<path d="M73815 74436
L73857 74399
L73936 74361
L74049 74361
L74119 74399
L74147 74474
L74096 74886
" />
<path d="M74147 74474
L74194 74399
L74274 74361
L74386 74361
L74457 74399
L74485 74474
L74433 74886
" />
<path d="M74860 74474
L75122 74474
" />
<path d="M75183 74886
L74808 74886
L74907 74099
L75282 74099
" />
<path d="M75586 74361
L75521 74886
" />
<path d="M75577 74436
L75619 74399
L75699 74361
L75811 74361
L75882 74399
L75910 74474
L75858 74886
" />
<path d="M76575 74849
L76495 74886
L76346 74886
L76275 74849
L76242 74811
L76214 74736
L76242 74511
L76289 74436
L76331 74399
L76411 74361
L76561 74361
L76631 74399
" />
<path d="M77020 74886
L76950 74849
L76917 74811
L76889 74736
L76917 74511
L76964 74436
L77006 74399
L77086 74361
L77199 74361
L77269 74399
L77302 74436
L77330 74511
L77302 74736
L77255 74811
L77213 74849
L77133 74886
L77020 74886
" />
<path d="M77958 74886
L78056 74099
" />
<path d="M77962 74849
L77883 74886
L77733 74886
L77663 74849
L77630 74811
L77602 74736
L77630 74511
L77677 74436
L77719 74399
L77798 74361
L77948 74361
L78019 74399
" />
<path d="M78637 74849
L78558 74886
L78408 74886
L78337 74849
L78309 74774
L78347 74474
L78394 74399
L78473 74361
L78623 74361
L78694 74399
L78722 74474
L78712 74549
L78328 74624
" />
<path d="M79008 74886
L79073 74361
" />
<path d="M79055 74511
L79101 74436
L79144 74399
L79223 74361
L79298 74361
" />
<path d="M79504 74811
L79537 74849
L79495 74886
L79462 74849
L79504 74811
L79495 74886
" />
<path d="M79556 74399
L79589 74436
L79547 74474
L79514 74436
L79556 74399
L79547 74474
" />
<path d="M80470 74886
L80568 74099
L80868 74099
L80939 74136
L80971 74174
L81000 74249
L80986 74361
L80939 74436
L80897 74474
L80817 74511
L80517 74511
" />
<path d="M81595 74886
L81646 74474
L81618 74399
L81548 74361
L81398 74361
L81318 74399
" />
<path d="M81600 74849
L81520 74886
L81332 74886
L81262 74849
L81234 74774
L81243 74699
L81290 74624
L81370 74586
L81557 74586
L81637 74549
" />
<path d="M82035 74361
L81970 74886
" />
<path d="M82026 74436
L82068 74399
L82148 74361
L82260 74361
L82331 74399
L82359 74474
L82307 74886
" />
<path d="M83020 74886
L83071 74474
L83043 74399
L82973 74361
L82823 74361
L82743 74399
" />
<path d="M83024 74849
L82945 74886
L82757 74886
L82687 74849
L82659 74774
L82668 74699
L82715 74624
L82795 74586
L82982 74586
L83062 74549
" />
<path d="M83507 74886
L83437 74849
L83409 74774
L83493 74099
" />
<path d="M83807 74886
L83873 74361
" />
<path d="M83906 74099
L83863 74136
L83896 74174
L83938 74136
L83906 74099
L83896 74174
" />
<path d="M84173 74361
L84585 74361
L84107 74886
L84519 74886
" />
<path d="M85124 74849
L85044 74886
L84894 74886
L84824 74849
L84796 74774
L84834 74474
L84880 74399
L84960 74361
L85110 74361
L85180 74399
L85208 74474
L85199 74549
L84815 74624
" />
<path d="M85832 74886
L85930 74099
" />
<path d="M85837 74849
L85757 74886
L85607 74886
L85537 74849
L85504 74811
L85476 74736
L85504 74511
L85551 74436
L85593 74399
L85672 74361
L85822 74361
L85893 74399
" />
</g>
<g style="fill:#000000; fill-opacity:0.0; 
stroke:#000000; stroke-width:39.3701; stroke-opacity:1; 
stroke-linecap:round; stroke-linejoin:round;">
</g>
<g style="fill:#000000; fill-opacity:0.0; 
stroke:#000000; stroke-width:59.0551; stroke-opacity:1; 
stroke-linecap:round; stroke-linejoin:round;">
<path d="M70417 73070
L70220 73070
" />
<path d="M70220 73380
L70220 72789
L70501 72789
" />
<path d="M70726 73380
L70726 72986
" />
<path d="M70726 72789
L70698 72817
L70726 72845
L70754 72817
L70726 72789
L70726 72845
" />
<path d="M71091 73380
L71035 73352
L71007 73295
L71007 72789
" />
<path d="M71541 73352
L71485 73380
L71373 73380
L71316 73352
L71288 73295
L71288 73070
L71316 73014
L71373 72986
L71485 72986
L71541 73014
L71570 73070
L71570 73127
L71288 73183
" />
<path d="M71823 73323
L71851 73352
L71823 73380
L71795 73352
L71823 73323
L71823 73380
" />
<path d="M71823 73014
L71851 73042
L71823 73070
L71795 73042
L71823 73014
L71823 73070
" />
<path d="M72554 73380
L72554 72986
" />
<path d="M72554 73042
L72582 73014
L72638 72986
L72723 72986
L72779 73014
L72807 73070
L72807 73380
" />
<path d="M72807 73070
L72835 73014
L72891 72986
L72976 72986
L73032 73014
L73060 73070
L73060 73380
" />
<path d="M73566 73352
L73510 73380
L73397 73380
L73341 73352
L73313 73295
L73313 73070
L73341 73014
L73397 72986
L73510 72986
L73566 73014
L73594 73070
L73594 73127
L73313 73183
" />
<path d="M73847 72986
L73847 73380
" />
<path d="M73847 73042
L73876 73014
L73932 72986
L74016 72986
L74072 73014
L74100 73070
L74100 73380
" />
<path d="M74635 73352
L74579 73380
L74466 73380
L74410 73352
L74382 73323
L74354 73267
L74354 73099
L74382 73042
L74410 73014
L74466 72986
L74579 72986
L74635 73014
" />
<path d="M74972 73380
L74916 73352
L74888 73323
L74860 73267
L74860 73099
L74888 73042
L74916 73014
L74972 72986
L75057 72986
L75113 73014
L75141 73042
L75169 73099
L75169 73267
L75141 73323
L75113 73352
L75057 73380
L74972 73380
" />
<path d="M75675 73380
L75675 72789
" />
<path d="M75675 73352
L75619 73380
L75507 73380
L75450 73352
L75422 73323
L75394 73267
L75394 73099
L75422 73042
L75450 73014
L75507 72986
L75619 72986
L75675 73014
" />
<path d="M76181 73352
L76125 73380
L76013 73380
L75956 73352
L75928 73295
L75928 73070
L75956 73014
L76013 72986
L76125 72986
L76181 73014
L76210 73070
L76210 73127
L75928 73183
" />
<path d="M76463 73380
L76463 72986
" />
<path d="M76463 73099
L76491 73042
L76519 73014
L76575 72986
L76631 72986
" />
<path d="M76828 73155
L77278 73155
" />
<path d="M77559 72986
L77559 73577
" />
<path d="M77559 73014
L77616 72986
L77728 72986
L77784 73014
L77813 73042
L77841 73099
L77841 73267
L77813 73323
L77784 73352
L77728 73380
L77616 73380
L77559 73352
" />
<path d="M78347 73380
L78347 73070
L78319 73014
L78262 72986
L78150 72986
L78094 73014
" />
<path d="M78347 73352
L78291 73380
L78150 73380
L78094 73352
L78066 73295
L78066 73239
L78094 73183
L78150 73155
L78291 73155
L78347 73127
" />
<path d="M78628 72986
L78628 73380
" />
<path d="M78628 73042
L78656 73014
L78712 72986
L78797 72986
L78853 73014
L78881 73070
L78881 73380
" />
<path d="M79387 73352
L79331 73380
L79219 73380
L79162 73352
L79134 73295
L79134 73070
L79162 73014
L79219 72986
L79331 72986
L79387 73014
L79415 73070
L79415 73127
L79134 73183
" />
<path d="M79753 73380
L79697 73352
L79669 73295
L79669 72789
" />
<path d="M79978 73380
L79978 72986
" />
<path d="M79978 72789
L79950 72817
L79978 72845
L80006 72817
L79978 72789
L79978 72845
" />
<path d="M80203 72986
L80512 72986
L80203 73380
L80512 73380
" />
<path d="M80962 73352
L80906 73380
L80793 73380
L80737 73352
L80709 73295
L80709 73070
L80737 73014
L80793 72986
L80906 72986
L80962 73014
L80990 73070
L80990 73127
L80709 73183
" />
<path d="M81496 73380
L81496 72789
" />
<path d="M81496 73352
L81440 73380
L81328 73380
L81271 73352
L81243 73323
L81215 73267
L81215 73099
L81243 73042
L81271 73014
L81328 72986
L81440 72986
L81496 73014
" />
<path d="M81778 73323
L81806 73352
L81778 73380
L81750 73352
L81778 73323
L81778 73380
" />
<path d="M82059 73380
L82059 72789
" />
<path d="M82115 73155
L82284 73380
" />
<path d="M82284 72986
L82059 73211
" />
<path d="M82537 73380
L82537 72986
" />
<path d="M82537 72789
L82509 72817
L82537 72845
L82565 72817
L82537 72789
L82537 72845
" />
<path d="M83071 73352
L83015 73380
L82903 73380
L82846 73352
L82818 73323
L82790 73267
L82790 73099
L82818 73042
L82846 73014
L82903 72986
L83015 72986
L83071 73014
" />
<path d="M83577 73380
L83577 73070
L83549 73014
L83493 72986
L83381 72986
L83324 73014
" />
<path d="M83577 73352
L83521 73380
L83381 73380
L83324 73352
L83296 73295
L83296 73239
L83324 73183
L83381 73155
L83521 73155
L83577 73127
" />
<path d="M84112 73380
L84112 72789
" />
<path d="M84112 73352
L84055 73380
L83943 73380
L83887 73352
L83859 73323
L83831 73267
L83831 73099
L83859 73042
L83887 73014
L83943 72986
L84055 72986
L84112 73014
" />
<path d="M84252 73436
L84702 73436
" />
<path d="M84843 72986
L84843 73577
" />
<path d="M84843 73014
L84899 72986
L85012 72986
L85068 73014
L85096 73042
L85124 73099
L85124 73267
L85096 73323
L85068 73352
L85012 73380
L84899 73380
L84843 73352
" />
<path d="M85630 73352
L85574 73380
L85462 73380
L85405 73352
L85377 73323
L85349 73267
L85349 73099
L85377 73042
L85405 73014
L85462 72986
L85574 72986
L85630 73014
" />
<path d="M85883 73380
L85883 72789
" />
<path d="M85883 73014
L85940 72986
L86052 72986
L86108 73014
L86136 73042
L86165 73099
L86165 73267
L86136 73323
L86108 73352
L86052 73380
L85940 73380
L85883 73352
" />
</g>
<g style="fill:#000000; fill-opacity:0.0; 
stroke:#000000; stroke-width:39.3701; stroke-opacity:1; 
stroke-linecap:round; stroke-linejoin:round;">
</g>
<g style="fill:#000000; fill-opacity:0.0; 
stroke:#000000; stroke-width:59.0551; stroke-opacity:1; 
stroke-linecap:round; stroke-linejoin:round;">
<path d="M69685 71459
L112205 71459
" />
</g>
<g style="fill:#000000; fill-opacity:0.0; 
stroke:#000000; stroke-width:39.3701; stroke-opacity:1; 
stroke-linecap:round; stroke-linejoin:round;">
</g>
<g style="fill:#000000; fill-opacity:0.0; 
stroke:#000000; stroke-width:59.0551; stroke-opacity:1; 
stroke-linecap:round; stroke-linejoin:round;">
<path d="M70192 72289
L70276 72317
L70417 72317
L70473 72289
L70501 72260
L70529 72204
L70529 72148
L70501 72092
L70473 72064
L70417 72036
L70304 72007
L70248 71979
L70220 71951
L70192 71895
L70192 71839
L70220 71782
L70248 71754
L70304 71726
L70445 71726
L70529 71754
" />
<path d="M70782 72317
L70782 71726
" />
<path d="M71035 72317
L71035 72007
L71007 71951
L70951 71923
L70867 71923
L70810 71951
L70782 71979
" />
<path d="M71541 72289
L71485 72317
L71373 72317
L71316 72289
L71288 72232
L71288 72007
L71316 71951
L71373 71923
L71485 71923
L71541 71951
L71570 72007
L71570 72064
L71288 72120
" />
<path d="M72048 72289
L71991 72317
L71879 72317
L71823 72289
L71795 72232
L71795 72007
L71823 71951
L71879 71923
L71991 71923
L72048 71951
L72076 72007
L72076 72064
L71795 72120
" />
<path d="M72244 71923
L72469 71923
" />
<path d="M72329 71726
L72329 72232
L72357 72289
L72413 72317
L72469 72317
" />
<path d="M72666 72260
L72694 72289
L72666 72317
L72638 72289
L72666 72260
L72666 72317
" />
<path d="M72666 71951
L72694 71979
L72666 72007
L72638 71979
L72666 71951
L72666 72007
" />
</g>
<g style="fill:#000000; fill-opacity:0.0; 
stroke:#000000; stroke-width:39.3701; stroke-opacity:1; 
stroke-linecap:round; stroke-linejoin:round;">
</g>
<g style="fill:#000000; fill-opacity:0.0; 
stroke:#000000; stroke-width:118.11; stroke-opacity:1; 
stroke-linecap:round; stroke-linejoin:round;">
<path d="M70135 70742
L70360 70742
" />
<path d="M70220 70545
L70220 71051
L70248 71108
L70304 71136
L70360 71136
" />
<path d="M70782 71108
L70726 71136
L70613 71136
L70557 71108
L70529 71051
L70529 70826
L70557 70770
L70613 70742
L70726 70742
L70782 70770
L70810 70826
L70810 70883
L70529 70939
" />
<path d="M71316 71108
L71260 71136
L71148 71136
L71091 71108
L71063 71079
L71035 71023
L71035 70854
L71063 70798
L71091 70770
L71148 70742
L71260 70742
L71316 70770
" />
<path d="M71570 71136
L71570 70545
" />
<path d="M71823 71136
L71823 70826
L71795 70770
L71738 70742
L71654 70742
L71598 70770
L71570 70798
" />
<path d="M72019 70742
L72244 70742
" />
<path d="M72104 71136
L72104 70629
L72132 70573
L72188 70545
L72244 70545
" />
<path d="M72526 71136
L72469 71108
L72441 71079
L72413 71023
L72413 70854
L72441 70798
L72469 70770
L72526 70742
L72610 70742
L72666 70770
L72694 70798
L72723 70854
L72723 71023
L72694 71079
L72666 71108
L72610 71136
L72526 71136
" />
<path d="M72976 71136
L72976 70742
" />
<path d="M72976 70854
L73004 70798
L73032 70770
L73088 70742
L73144 70742
" />
<path d="M73257 70742
L73482 70742
" />
<path d="M73341 70545
L73341 71051
L73369 71108
L73426 71136
L73482 71136
" />
<path d="M73679 71136
L73679 70742
" />
<path d="M73679 70854
L73707 70798
L73735 70770
L73791 70742
L73847 70742
" />
<path d="M74297 71136
L74297 70826
L74269 70770
L74213 70742
L74100 70742
L74044 70770
" />
<path d="M74297 71108
L74241 71136
L74100 71136
L74044 71108
L74016 71051
L74016 70995
L74044 70939
L74100 70911
L74241 70911
L74297 70883
" />
<path d="M74832 71136
L74832 70545
" />
<path d="M74832 71108
L74775 71136
L74663 71136
L74607 71108
L74579 71079
L74550 71023
L74550 70854
L74579 70798
L74607 70770
L74663 70742
L74775 70742
L74832 70770
" />
<path d="M75338 71108
L75282 71136
L75169 71136
L75113 71108
L75085 71051
L75085 70826
L75113 70770
L75169 70742
L75282 70742
L75338 70770
L75366 70826
L75366 70883
L75085 70939
" />
</g>
<g style="fill:#000000; fill-opacity:0.0; 
stroke:#000000; stroke-width:39.3701; stroke-opacity:1; 
stroke-linecap:round; stroke-linejoin:round;">
</g>
<g style="fill:#000000; fill-opacity:0.0; 
stroke:#000000; stroke-width:59.0551; stroke-opacity:1; 
stroke-linecap:round; stroke-linejoin:round;">
<path d="M77559 75396
L77559 76577
" />
</g>
<g style="fill:#000000; fill-opacity:0.0; 
stroke:#000000; stroke-width:39.3701; stroke-opacity:1; 
stroke-linecap:round; stroke-linejoin:round;">
</g>
<g style="fill:#000000; fill-opacity:0.0; 
stroke:#000000; stroke-width:59.0551; stroke-opacity:1; 
stroke-linecap:round; stroke-linejoin:round;">
<path d="M102756 75396
L102756 77955
" />
</g>
<g style="fill:#C2C2C2; fill-opacity:0.0; 
stroke:#C2C2C2; stroke-width:59.0551; stroke-opacity:1; 
stroke-linecap:round; stroke-linejoin:round;">
</g>
<g style="fill:#C2C2C2; fill-opacity:0.0; 
stroke:#C2C2C2; stroke-width:118.11; stroke-opacity:1; 
stroke-linecap:round; stroke-linejoin:round;">
<path d="M55109 17935
L55222 17935
L55278 17907
L55306 17879
L55362 17795
L55390 17682
L55390 17457
L55362 17401
L55334 17373
L55278 17345
L55165 17345
L55109 17373
L55081 17401
L55053 17457
L55053 17598
L55081 17654
L55109 17682
L55165 17710
L55278 17710
L55334 17682
L55362 17654
L55390 17598
" />
<path d="M55587 17345
L55953 17345
L55756 17570
L55840 17570
L55897 17598
L55925 17626
L55953 17682
L55953 17823
L55925 17879
L55897 17907
L55840 17935
L55672 17935
L55615 17907
L55587 17879
" />
<path d="M56206 17879
L56234 17907
L56206 17935
L56178 17907
L56206 17879
L56206 17935
" />
<path d="M56515 17935
L56628 17935
L56684 17907
L56712 17879
L56768 17795
L56796 17682
L56796 17457
L56768 17401
L56740 17373
L56684 17345
L56571 17345
L56515 17373
L56487 17401
L56459 17457
L56459 17598
L56487 17654
L56515 17682
L56571 17710
L56684 17710
L56740 17682
L56768 17654
L56796 17598
" />
<path d="M57134 17598
L57078 17570
L57050 17541
L57021 17485
L57021 17457
L57050 17401
L57078 17373
L57134 17345
L57246 17345
L57303 17373
L57331 17401
L57359 17457
L57359 17485
L57331 17541
L57303 17570
L57246 17598
L57134 17598
L57078 17626
L57050 17654
L57021 17710
L57021 17823
L57050 17879
L57078 17907
L57134 17935
L57246 17935
L57303 17907
L57331 17879
L57359 17823
L57359 17710
L57331 17654
L57303 17626
L57246 17598
" />
<path d="M57724 17345
L57781 17345
L57837 17373
L57865 17401
L57893 17457
L57921 17570
L57921 17710
L57893 17823
L57865 17879
L57837 17907
L57781 17935
L57724 17935
L57668 17907
L57640 17879
L57612 17823
L57584 17710
L57584 17570
L57612 17457
L57640 17401
L57668 17373
L57724 17345
" />
<path d="M58624 17935
L58624 17541
" />
<path d="M58624 17598
L58652 17570
L58709 17541
L58793 17541
L58849 17570
L58877 17626
L58877 17935
" />
<path d="M58877 17626
L58906 17570
L58962 17541
L59046 17541
L59102 17570
L59131 17626
L59131 17935
" />
<path d="M59412 17935
L59412 17541
" />
<path d="M59412 17598
L59440 17570
L59496 17541
L59580 17541
L59637 17570
L59665 17626
L59665 17935
" />
<path d="M59665 17626
L59693 17570
L59749 17541
L59834 17541
L59890 17570
L59918 17626
L59918 17935
" />
<path d="M39000 18200
L76000 18200
" />
<path d="M39000 21800
L39000 17137
" />
<path d="M76000 21800
L76000 17137
" />
<path d="M76000 18200
L75556 18430
" />
<path d="M76000 18200
L75556 17969
" />
<path d="M39000 18200
L39443 18430
" />
<path d="M39000 18200
L39443 17969
" />
<path d="M81764 37309
L81764 37422
L81792 37478
L81820 37506
L81904 37562
L82017 37590
L82242 37590
L82298 37562
L82326 37534
L82354 37478
L82354 37365
L82326 37309
L82298 37281
L82242 37253
L82101 37253
L82045 37281
L82017 37309
L81989 37365
L81989 37478
L82017 37534
L82045 37562
L82101 37590
" />
<path d="M82354 37956
L82354 38012
L82326 38068
L82298 38097
L82242 38125
L82129 38153
L81989 38153
L81876 38125
L81820 38097
L81792 38068
L81764 38012
L81764 37956
L81792 37900
L81820 37872
L81876 37843
L81989 37815
L82129 37815
L82242 37843
L82298 37872
L82326 37900
L82354 37956
" />
<path d="M81820 38406
L81792 38434
L81764 38406
L81792 38378
L81820 38406
L81764 38406
" />
<path d="M81764 38715
L81764 38828
L81792 38884
L81820 38912
L81904 38968
L82017 38996
L82242 38996
L82298 38968
L82326 38940
L82354 38884
L82354 38771
L82326 38715
L82298 38687
L82242 38659
L82101 38659
L82045 38687
L82017 38715
L81989 38771
L81989 38884
L82017 38940
L82045 38968
L82101 38996
" />
<path d="M82354 39193
L82354 39559
L82129 39362
L82129 39446
L82101 39503
L82073 39531
L82017 39559
L81876 39559
L81820 39531
L81792 39503
L81764 39446
L81764 39278
L81792 39221
L81820 39193
" />
<path d="M82298 39784
L82326 39812
L82354 39868
L82354 40009
L82326 40065
L82298 40093
L82242 40121
L82186 40121
L82101 40093
L81764 39756
L81764 40121
" />
<path d="M81764 40824
L82158 40824
" />
<path d="M82101 40824
L82129 40852
L82158 40909
L82158 40993
L82129 41049
L82073 41077
L81764 41077
" />
<path d="M82073 41077
L82129 41106
L82158 41162
L82158 41246
L82129 41302
L82073 41331
L81764 41331
" />
<path d="M81764 41612
L82158 41612
" />
<path d="M82101 41612
L82129 41640
L82158 41696
L82158 41780
L82129 41837
L82073 41865
L81764 41865
" />
<path d="M82073 41865
L82129 41893
L82158 41949
L82158 42034
L82129 42090
L82073 42118
L81764 42118
" />
<path d="M81500 21800
L81500 57600
" />
<path d="M76000 21800
L82562 21800
" />
<path d="M76000 57600
L82562 57600
" />
<path d="M81500 57600
L81269 57156
" />
<path d="M81500 57600
L81730 57156
" />
<path d="M81500 21800
L81269 22243
" />
<path d="M81500 21800
L81730 22243
" />
</g>
<g style="fill:#000000; fill-opacity:0.0; 
stroke:#000000; stroke-width:118.11; stroke-opacity:1; 
stroke-linecap:round; stroke-linejoin:round;">
</g>
<g style="fill:#C2C200; fill-opacity:0.0; 
stroke:#C2C200; stroke-width:118.11; stroke-opacity:1; 
stroke-linecap:round; stroke-linejoin:round;">
</g>
<g style="fill:#C2C200; fill-opacity:0.0; 
stroke:#C2C200; stroke-width:59.0551; stroke-opacity:1; 
stroke-linecap:round; stroke-linejoin:round;">
<path d="M44900 57300
L44900 53200
" />
<path d="M45200 53200
L45200 57300
" />
<path d="M45100 57400 A100 100 0.0 0 0 45200 57300 " />
<path d="M44900 57300 A100 100 0.0 0 0 45000 57400 " />
<path d="M45100 57400
L45000 57400
" />
<path d="M45000 53100 A100 100 0.0 0 0 44900 53200 " />
<path d="M45200 53200 A100 100 0.0 0 0 45100 53100 " />
<path d="M45100 53100
L45000 53100
" />
<path d="M51300 57400 A100 100 0.0 0 0 51400 57300 " />
<path d="M51200 57300 A100 100 0.0 0 0 51300 57400 " />
<path d="M51300 53200 A100 100 0.0 0 0 51200 53300 " />
<path d="M51400 53300 A100 100 0.0 0 0 51300 53200 " />
<path d="M51400 53300
L51400 57300
" />
<path d="M51200 57300
L51200 53300
" />
<path d="M57400 57300
L57400 53300
" />
<path d="M57600 53300
L57600 57300
" />
<path d="M57600 53300 A100 100 0.0 0 0 57500 53200 " />
<path d="M57500 53200 A100 100 0.0 0 0 57400 53300 " />
<path d="M57400 57300 A100 100 0.0 0 0 57500 57400 " />
<path d="M57500 57400 A100 100 0.0 0 0 57600 57300 " />
<path d="M51900 52600 A100 100 0.0 0 0 51800 52700 " />
<path d="M51800 52700 A100 100 0.0 0 0 51900 52800 " />
<path d="M56900 52800 A100 100 0.0 0 0 57000 52700 " />
<path d="M57000 52700 A100 100 0.0 0 0 56900 52600 " />
<path d="M56900 52800
L51900 52800
" />
<path d="M51900 52600
L56900 52600
" />
<path d="M58200 52600
L63200 52600
" />
<path d="M63200 52800
L58200 52800
" />
<path d="M63300 52700 A100 100 0.0 0 0 63200 52600 " />
<path d="M63200 52800 A100 100 0.0 0 0 63300 52700 " />
<path d="M58100 52700 A100 100 0.0 0 0 58200 52800 " />
<path d="M58200 52600 A100 100 0.0 0 0 58100 52700 " />
<path d="M45800 52600
L50800 52600
" />
<path d="M50800 52800
L45800 52800
" />
<path d="M50900 52700 A100 100 0.0 0 0 50800 52600 " />
<path d="M50800 52800 A100 100 0.0 0 0 50900 52700 " />
<path d="M45700 52700 A100 100 0.0 0 0 45800 52800 " />
<path d="M45800 52600 A100 100 0.0 0 0 45700 52700 " />
<path d="M64400 52600 A100 100 0.0 0 0 64300 52700 " />
<path d="M64300 52700 A100 100 0.0 0 0 64400 52800 " />
<path d="M69400 52800 A100 100 0.0 0 0 69500 52700 " />
<path d="M69500 52700 A100 100 0.0 0 0 69400 52600 " />
<path d="M69400 52800
L64400 52800
" />
<path d="M64400 52600
L69400 52600
" />
<path d="M63800 57400 A100 100 0.0 0 0 63900 57300 " />
<path d="M63700 57300 A100 100 0.0 0 0 63800 57400 " />
<path d="M63800 53200 A100 100 0.0 0 0 63700 53300 " />
<path d="M63900 53300 A100 100 0.0 0 0 63800 53200 " />
<path d="M63900 53300
L63900 57300
" />
<path d="M63700 57300
L63700 53300
" />
<path d="M69900 57300
L69900 53300
" />
<path d="M70100 53300
L70100 57300
" />
<path d="M70100 53300 A100 100 0.0 0 0 70000 53200 " />
<path d="M70000 53200 A100 100 0.0 0 0 69900 53300 " />
<path d="M69900 57300 A100 100 0.0 0 0 70000 57400 " />
<path d="M70000 57400 A100 100 0.0 0 0 70100 57300 " />
<path d="M70500 52600
L75500 52600
" />
<path d="M75500 52800
L70500 52800
" />
<path d="M75600 52700 A100 100 0.0 0 0 75500 52600 " />
<path d="M75500 52800 A100 100 0.0 0 0 75600 52700 " />
<path d="M70400 52700 A100 100 0.0 0 0 70500 52800 " />
<path d="M70500 52600 A100 100 0.0 0 0 70400 52700 " />
<path d="M39500 52600 A100 100 0.0 0 0 39400 52700 " />
<path d="M39400 52700 A100 100 0.0 0 0 39500 52800 " />
<path d="M44500 52800 A100 100 0.0 0 0 44600 52700 " />
<path d="M44600 52700 A100 100 0.0 0 0 44500 52600 " />
<path d="M44500 52800
L39500 52800
" />
<path d="M39500 52600
L44500 52600
" />
<path d="M51800 47500 A100 100 0.0 0 0 51900 47600 " />
<path d="M51900 47400 A100 100 0.0 0 0 51800 47500 " />
<path d="M57000 47500 A100 100 0.0 0 0 56900 47400 " />
<path d="M56900 47600 A100 100 0.0 0 0 57000 47500 " />
<path d="M56900 47400
L51900 47400
" />
<path d="M51900 47600
L56900 47600
" />
<path d="M57600 48100 A100 100 0.0 0 0 57500 48000 " />
<path d="M57500 48000 A100 100 0.0 0 0 57400 48100 " />
<path d="M57400 52100 A100 100 0.0 0 0 57500 52200 " />
<path d="M57500 52200 A100 100 0.0 0 0 57600 52100 " />
<path d="M57600 52100
L57600 48100
" />
<path d="M57400 48100
L57400 52100
" />
<path d="M51200 48100
L51200 52100
" />
<path d="M51400 52100
L51400 48100
" />
<path d="M51300 52200 A100 100 0.0 0 0 51400 52100 " />
<path d="M51200 52100 A100 100 0.0 0 0 51300 52200 " />
<path d="M51300 48000 A100 100 0.0 0 0 51200 48100 " />
<path d="M51400 48100 A100 100 0.0 0 0 51300 48000 " />
<path d="M58200 47600
L63200 47600
" />
<path d="M63200 47400
L58200 47400
" />
<path d="M63200 47600 A100 100 0.0 0 0 63300 47500 " />
<path d="M63300 47500 A100 100 0.0 0 0 63200 47400 " />
<path d="M58200 47400 A100 100 0.0 0 0 58100 47500 " />
<path d="M58100 47500 A100 100 0.0 0 0 58200 47600 " />
<path d="M45800 47600
L50800 47600
" />
<path d="M50800 47400
L45800 47400
" />
<path d="M50800 47600 A100 100 0.0 0 0 50900 47500 " />
<path d="M50900 47500 A100 100 0.0 0 0 50800 47400 " />
<path d="M45800 47400 A100 100 0.0 0 0 45700 47500 " />
<path d="M45700 47500 A100 100 0.0 0 0 45800 47600 " />
<path d="M64300 47500 A100 100 0.0 0 0 64400 47600 " />
<path d="M64400 47400 A100 100 0.0 0 0 64300 47500 " />
<path d="M69500 47500 A100 100 0.0 0 0 69400 47400 " />
<path d="M69400 47600 A100 100 0.0 0 0 69500 47500 " />
<path d="M69400 47400
L64400 47400
" />
<path d="M64400 47600
L69400 47600
" />
<path d="M63700 48000
L63700 52000
" />
<path d="M63900 52000
L63900 48000
" />
<path d="M63800 52100 A100 100 0.0 0 0 63900 52000 " />
<path d="M63700 52000 A100 100 0.0 0 0 63800 52100 " />
<path d="M63800 47900 A100 100 0.0 0 0 63700 48000 " />
<path d="M63900 48000 A100 100 0.0 0 0 63800 47900 " />
<path d="M70100 48100 A100 100 0.0 0 0 70000 48000 " />
<path d="M70000 48000 A100 100 0.0 0 0 69900 48100 " />
<path d="M69900 52100 A100 100 0.0 0 0 70000 52200 " />
<path d="M70000 52200 A100 100 0.0 0 0 70100 52100 " />
<path d="M70100 52100
L70100 48100
" />
<path d="M69900 48100
L69900 52100
" />
<path d="M45200 48100 A100 100 0.0 0 0 45100 48000 " />
<path d="M45100 52200 A100 100 0.0 0 0 45200 52100 " />
<path d="M45200 52100
L45200 48100
" />
<path d="M44900 48100
L44900 52100
" />
<path d="M70500 47600
L75500 47600
" />
<path d="M75500 47400
L70500 47400
" />
<path d="M75500 47600 A100 100 0.0 0 0 75600 47500 " />
<path d="M75600 47500 A100 100 0.0 0 0 75500 47400 " />
<path d="M70500 47400 A100 100 0.0 0 0 70400 47500 " />
<path d="M70400 47500 A100 100 0.0 0 0 70500 47600 " />
<path d="M39400 47500 A100 100 0.0 0 0 39500 47600 " />
<path d="M39500 47400 A100 100 0.0 0 0 39400 47500 " />
<path d="M44600 47500 A100 100 0.0 0 0 44500 47400 " />
<path d="M44500 47600 A100 100 0.0 0 0 44600 47500 " />
<path d="M44500 47400
L39500 47400
" />
<path d="M39500 47600
L44500 47600
" />
<path d="M44900 52100 A100 100 0.0 0 0 45000 52200 " />
<path d="M45100 52200
L45000 52200
" />
<path d="M45100 48000
L45000 48000
" />
<path d="M45000 48000 A100 100 0.0 0 0 44900 48100 " />
<path d="M51800 37100 A100 100 0.0 0 0 51900 37200 " />
<path d="M51900 37000 A100 100 0.0 0 0 51800 37100 " />
<path d="M57000 37100 A100 100 0.0 0 0 56900 37000 " />
<path d="M56900 37200 A100 100 0.0 0 0 57000 37100 " />
<path d="M56900 37000
L51900 37000
" />
<path d="M51900 37200
L56900 37200
" />
<path d="M57600 37700 A100 100 0.0 0 0 57500 37600 " />
<path d="M57500 37600 A100 100 0.0 0 0 57400 37700 " />
<path d="M57400 41700 A100 100 0.0 0 0 57500 41800 " />
<path d="M57500 41800 A100 100 0.0 0 0 57600 41700 " />
<path d="M57600 41700
L57600 37700
" />
<path d="M57400 37700
L57400 41700
" />
<path d="M51200 37700
L51200 41700
" />
<path d="M51400 41700
L51400 37700
" />
<path d="M51300 41800 A100 100 0.0 0 0 51400 41700 " />
<path d="M51200 41700 A100 100 0.0 0 0 51300 41800 " />
<path d="M51300 37600 A100 100 0.0 0 0 51200 37700 " />
<path d="M51400 37700 A100 100 0.0 0 0 51300 37600 " />
<path d="M58200 37200
L63200 37200
" />
<path d="M63200 37000
L58200 37000
" />
<path d="M63200 37200 A100 100 0.0 0 0 63300 37100 " />
<path d="M63300 37100 A100 100 0.0 0 0 63200 37000 " />
<path d="M58200 37000 A100 100 0.0 0 0 58100 37100 " />
<path d="M58100 37100 A100 100 0.0 0 0 58200 37200 " />
<path d="M45800 37200
L50800 37200
" />
<path d="M50800 37000
L45800 37000
" />
<path d="M50800 37200 A100 100 0.0 0 0 50900 37100 " />
<path d="M50900 37100 A100 100 0.0 0 0 50800 37000 " />
<path d="M45800 37000 A100 100 0.0 0 0 45700 37100 " />
<path d="M45700 37100 A100 100 0.0 0 0 45800 37200 " />
<path d="M64300 37100 A100 100 0.0 0 0 64400 37200 " />
<path d="M64400 37000 A100 100 0.0 0 0 64300 37100 " />
<path d="M69500 37100 A100 100 0.0 0 0 69400 37000 " />
<path d="M69400 37200 A100 100 0.0 0 0 69500 37100 " />
<path d="M69400 37000
L64400 37000
" />
<path d="M64400 37200
L69400 37200
" />
<path d="M63700 37600
L63700 41600
" />
<path d="M63900 41600
L63900 37600
" />
<path d="M63800 41700 A100 100 0.0 0 0 63900 41600 " />
<path d="M63700 41600 A100 100 0.0 0 0 63800 41700 " />
<path d="M63800 37500 A100 100 0.0 0 0 63700 37600 " />
<path d="M63900 37600 A100 100 0.0 0 0 63800 37500 " />
<path d="M70100 37700 A100 100 0.0 0 0 70000 37600 " />
<path d="M70000 37600 A100 100 0.0 0 0 69900 37700 " />
<path d="M69900 41700 A100 100 0.0 0 0 70000 41800 " />
<path d="M70000 41800 A100 100 0.0 0 0 70100 41700 " />
<path d="M70100 41700
L70100 37700
" />
<path d="M69900 37700
L69900 41700
" />
<path d="M45200 37700 A100 100 0.0 0 0 45100 37600 " />
<path d="M45100 41800 A100 100 0.0 0 0 45200 41700 " />
<path d="M45200 41700
L45200 37700
" />
<path d="M44900 37700
L44900 41700
" />
<path d="M70500 37200
L75500 37200
" />
<path d="M75500 37000
L70500 37000
" />
<path d="M75500 37200 A100 100 0.0 0 0 75600 37100 " />
<path d="M75600 37100 A100 100 0.0 0 0 75500 37000 " />
<path d="M70500 37000 A100 100 0.0 0 0 70400 37100 " />
<path d="M70400 37100 A100 100 0.0 0 0 70500 37200 " />
<path d="M39400 37100 A100 100 0.0 0 0 39500 37200 " />
<path d="M39500 37000 A100 100 0.0 0 0 39400 37100 " />
<path d="M44600 37100 A100 100 0.0 0 0 44500 37000 " />
<path d="M44500 37200 A100 100 0.0 0 0 44600 37100 " />
<path d="M44500 37000
L39500 37000
" />
<path d="M39500 37200
L44500 37200
" />
<path d="M45100 41800
L45000 41800
" />
<path d="M45100 37600
L45000 37600
" />
<path d="M45000 37600 A100 100 0.0 0 0 44900 37700 " />
<path d="M45000 42700 A100 100 0.0 0 0 44900 42800 " />
<path d="M45100 42700
L45000 42700
" />
<path d="M45100 46900
L45000 46900
" />
<path d="M44900 46800 A100 100 0.0 0 0 45000 46900 " />
<path d="M39500 42300
L44500 42300
" />
<path d="M44500 42100
L39500 42100
" />
<path d="M44500 42300 A100 100 0.0 0 0 44600 42200 " />
<path d="M44600 42200 A100 100 0.0 0 0 44500 42100 " />
<path d="M39500 42100 A100 100 0.0 0 0 39400 42200 " />
<path d="M39400 42200 A100 100 0.0 0 0 39500 42300 " />
<path d="M70400 42200 A100 100 0.0 0 0 70500 42300 " />
<path d="M70500 42100 A100 100 0.0 0 0 70400 42200 " />
<path d="M75600 42200 A100 100 0.0 0 0 75500 42100 " />
<path d="M75500 42300 A100 100 0.0 0 0 75600 42200 " />
<path d="M75500 42100
L70500 42100
" />
<path d="M70500 42300
L75500 42300
" />
<path d="M44900 42800
L44900 46800
" />
<path d="M45200 46800
L45200 42800
" />
<path d="M45100 46900 A100 100 0.0 0 0 45200 46800 " />
<path d="M45200 42800 A100 100 0.0 0 0 45100 42700 " />
<path d="M69900 42800
L69900 46800
" />
<path d="M70100 46800
L70100 42800
" />
<path d="M70000 46900 A100 100 0.0 0 0 70100 46800 " />
<path d="M69900 46800 A100 100 0.0 0 0 70000 46900 " />
<path d="M70000 42700 A100 100 0.0 0 0 69900 42800 " />
<path d="M70100 42800 A100 100 0.0 0 0 70000 42700 " />
<path d="M63900 42700 A100 100 0.0 0 0 63800 42600 " />
<path d="M63800 42600 A100 100 0.0 0 0 63700 42700 " />
<path d="M63700 46700 A100 100 0.0 0 0 63800 46800 " />
<path d="M63800 46800 A100 100 0.0 0 0 63900 46700 " />
<path d="M63900 46700
L63900 42700
" />
<path d="M63700 42700
L63700 46700
" />
<path d="M64400 42300
L69400 42300
" />
<path d="M69400 42100
L64400 42100
" />
<path d="M69400 42300 A100 100 0.0 0 0 69500 42200 " />
<path d="M69500 42200 A100 100 0.0 0 0 69400 42100 " />
<path d="M64400 42100 A100 100 0.0 0 0 64300 42200 " />
<path d="M64300 42200 A100 100 0.0 0 0 64400 42300 " />
<path d="M45700 42200 A100 100 0.0 0 0 45800 42300 " />
<path d="M45800 42100 A100 100 0.0 0 0 45700 42200 " />
<path d="M50900 42200 A100 100 0.0 0 0 50800 42100 " />
<path d="M50800 42300 A100 100 0.0 0 0 50900 42200 " />
<path d="M50800 42100
L45800 42100
" />
<path d="M45800 42300
L50800 42300
" />
<path d="M58100 42200 A100 100 0.0 0 0 58200 42300 " />
<path d="M58200 42100 A100 100 0.0 0 0 58100 42200 " />
<path d="M63300 42200 A100 100 0.0 0 0 63200 42100 " />
<path d="M63200 42300 A100 100 0.0 0 0 63300 42200 " />
<path d="M63200 42100
L58200 42100
" />
<path d="M58200 42300
L63200 42300
" />
<path d="M51400 42800 A100 100 0.0 0 0 51300 42700 " />
<path d="M51300 42700 A100 100 0.0 0 0 51200 42800 " />
<path d="M51200 46800 A100 100 0.0 0 0 51300 46900 " />
<path d="M51300 46900 A100 100 0.0 0 0 51400 46800 " />
<path d="M51400 46800
L51400 42800
" />
<path d="M51200 42800
L51200 46800
" />
<path d="M57400 42800
L57400 46800
" />
<path d="M57600 46800
L57600 42800
" />
<path d="M57500 46900 A100 100 0.0 0 0 57600 46800 " />
<path d="M57400 46800 A100 100 0.0 0 0 57500 46900 " />
<path d="M57500 42700 A100 100 0.0 0 0 57400 42800 " />
<path d="M57600 42800 A100 100 0.0 0 0 57500 42700 " />
<path d="M51900 42300
L56900 42300
" />
<path d="M56900 42100
L51900 42100
" />
<path d="M56900 42300 A100 100 0.0 0 0 57000 42200 " />
<path d="M57000 42200 A100 100 0.0 0 0 56900 42100 " />
<path d="M51900 42100 A100 100 0.0 0 0 51800 42200 " />
<path d="M51800 42200 A100 100 0.0 0 0 51900 42300 " />
<path d="M44900 41700 A100 100 0.0 0 0 45000 41800 " />
<path d="M44900 31300 A100 100 0.0 0 0 45000 31400 " />
<path d="M51800 31800 A100 100 0.0 0 0 51900 31900 " />
<path d="M51900 31700 A100 100 0.0 0 0 51800 31800 " />
<path d="M57000 31800 A100 100 0.0 0 0 56900 31700 " />
<path d="M56900 31900 A100 100 0.0 0 0 57000 31800 " />
<path d="M56900 31700
L51900 31700
" />
<path d="M51900 31900
L56900 31900
" />
<path d="M57600 32400 A100 100 0.0 0 0 57500 32300 " />
<path d="M57500 32300 A100 100 0.0 0 0 57400 32400 " />
<path d="M57400 36400 A100 100 0.0 0 0 57500 36500 " />
<path d="M57500 36500 A100 100 0.0 0 0 57600 36400 " />
<path d="M57600 36400
L57600 32400
" />
<path d="M57400 32400
L57400 36400
" />
<path d="M51200 32400
L51200 36400
" />
<path d="M51400 36400
L51400 32400
" />
<path d="M51300 36500 A100 100 0.0 0 0 51400 36400 " />
<path d="M51200 36400 A100 100 0.0 0 0 51300 36500 " />
<path d="M51300 32300 A100 100 0.0 0 0 51200 32400 " />
<path d="M51400 32400 A100 100 0.0 0 0 51300 32300 " />
<path d="M58200 31900
L63200 31900
" />
<path d="M63200 31700
L58200 31700
" />
<path d="M63200 31900 A100 100 0.0 0 0 63300 31800 " />
<path d="M63300 31800 A100 100 0.0 0 0 63200 31700 " />
<path d="M58200 31700 A100 100 0.0 0 0 58100 31800 " />
<path d="M58100 31800 A100 100 0.0 0 0 58200 31900 " />
<path d="M45800 31900
L50800 31900
" />
<path d="M50800 31700
L45800 31700
" />
<path d="M50800 31900 A100 100 0.0 0 0 50900 31800 " />
<path d="M50900 31800 A100 100 0.0 0 0 50800 31700 " />
<path d="M45800 31700 A100 100 0.0 0 0 45700 31800 " />
<path d="M45700 31800 A100 100 0.0 0 0 45800 31900 " />
<path d="M64300 31800 A100 100 0.0 0 0 64400 31900 " />
<path d="M64400 31700 A100 100 0.0 0 0 64300 31800 " />
<path d="M69500 31800 A100 100 0.0 0 0 69400 31700 " />
<path d="M69400 31900 A100 100 0.0 0 0 69500 31800 " />
<path d="M69400 31700
L64400 31700
" />
<path d="M64400 31900
L69400 31900
" />
<path d="M63700 32300
L63700 36300
" />
<path d="M63900 36300
L63900 32300
" />
<path d="M63800 36400 A100 100 0.0 0 0 63900 36300 " />
<path d="M63700 36300 A100 100 0.0 0 0 63800 36400 " />
<path d="M63800 32200 A100 100 0.0 0 0 63700 32300 " />
<path d="M63900 32300 A100 100 0.0 0 0 63800 32200 " />
<path d="M70100 32400 A100 100 0.0 0 0 70000 32300 " />
<path d="M70000 32300 A100 100 0.0 0 0 69900 32400 " />
<path d="M69900 36400 A100 100 0.0 0 0 70000 36500 " />
<path d="M70000 36500 A100 100 0.0 0 0 70100 36400 " />
<path d="M70100 36400
L70100 32400
" />
<path d="M69900 32400
L69900 36400
" />
<path d="M45200 32400 A100 100 0.0 0 0 45100 32300 " />
<path d="M45100 36500 A100 100 0.0 0 0 45200 36400 " />
<path d="M45200 36400
L45200 32400
" />
<path d="M44900 32400
L44900 36400
" />
<path d="M70500 31900
L75500 31900
" />
<path d="M75500 31700
L70500 31700
" />
<path d="M75500 31900 A100 100 0.0 0 0 75600 31800 " />
<path d="M75600 31800 A100 100 0.0 0 0 75500 31700 " />
<path d="M70500 31700 A100 100 0.0 0 0 70400 31800 " />
<path d="M70400 31800 A100 100 0.0 0 0 70500 31900 " />
<path d="M39400 31800 A100 100 0.0 0 0 39500 31900 " />
<path d="M39500 31700 A100 100 0.0 0 0 39400 31800 " />
<path d="M44600 31800 A100 100 0.0 0 0 44500 31700 " />
<path d="M44500 31900 A100 100 0.0 0 0 44600 31800 " />
<path d="M44500 31700
L39500 31700
" />
<path d="M39500 31900
L44500 31900
" />
<path d="M44900 36400 A100 100 0.0 0 0 45000 36500 " />
<path d="M45100 36500
L45000 36500
" />
<path d="M45100 32300
L45000 32300
" />
<path d="M45000 32300 A100 100 0.0 0 0 44900 32400 " />
<path d="M45000 27200 A100 100 0.0 0 0 44900 27300 " />
<path d="M45100 27200
L45000 27200
" />
<path d="M45100 31400
L45000 31400
" />
<path d="M39500 26800
L44500 26800
" />
<path d="M44500 26600
L39500 26600
" />
<path d="M44500 26800 A100 100 0.0 0 0 44600 26700 " />
<path d="M44600 26700 A100 100 0.0 0 0 44500 26600 " />
<path d="M39500 26600 A100 100 0.0 0 0 39400 26700 " />
<path d="M39400 26700 A100 100 0.0 0 0 39500 26800 " />
<path d="M70400 26700 A100 100 0.0 0 0 70500 26800 " />
<path d="M70500 26600 A100 100 0.0 0 0 70400 26700 " />
<path d="M75600 26700 A100 100 0.0 0 0 75500 26600 " />
<path d="M75500 26800 A100 100 0.0 0 0 75600 26700 " />
<path d="M75500 26600
L70500 26600
" />
<path d="M70500 26800
L75500 26800
" />
<path d="M44900 27300
L44900 31300
" />
<path d="M45200 31300
L45200 27300
" />
<path d="M45100 31400 A100 100 0.0 0 0 45200 31300 " />
<path d="M45200 27300 A100 100 0.0 0 0 45100 27200 " />
<path d="M69900 27300
L69900 31300
" />
<path d="M70100 31300
L70100 27300
" />
<path d="M70000 31400 A100 100 0.0 0 0 70100 31300 " />
<path d="M69900 31300 A100 100 0.0 0 0 70000 31400 " />
<path d="M70000 27200 A100 100 0.0 0 0 69900 27300 " />
<path d="M70100 27300 A100 100 0.0 0 0 70000 27200 " />
<path d="M70100 22100 A100 100 0.0 0 0 70000 22000 " />
<path d="M70000 22000 A100 100 0.0 0 0 69900 22100 " />
<path d="M69900 26100 A100 100 0.0 0 0 70000 26200 " />
<path d="M70000 26200 A100 100 0.0 0 0 70100 26100 " />
<path d="M70100 26100
L70100 22100
" />
<path d="M69900 22100
L69900 26100
" />
<path d="M63700 22100
L63700 26100
" />
<path d="M63900 26100
L63900 22100
" />
<path d="M63800 26200 A100 100 0.0 0 0 63900 26100 " />
<path d="M63700 26100 A100 100 0.0 0 0 63800 26200 " />
<path d="M63800 22000 A100 100 0.0 0 0 63700 22100 " />
<path d="M63900 22100 A100 100 0.0 0 0 63800 22000 " />
<path d="M63900 27200 A100 100 0.0 0 0 63800 27100 " />
<path d="M63800 27100 A100 100 0.0 0 0 63700 27200 " />
<path d="M63700 31200 A100 100 0.0 0 0 63800 31300 " />
<path d="M63800 31300 A100 100 0.0 0 0 63900 31200 " />
<path d="M63900 31200
L63900 27200
" />
<path d="M63700 27200
L63700 31200
" />
<path d="M64400 26800
L69400 26800
" />
<path d="M69400 26600
L64400 26600
" />
<path d="M69400 26800 A100 100 0.0 0 0 69500 26700 " />
<path d="M69500 26700 A100 100 0.0 0 0 69400 26600 " />
<path d="M64400 26600 A100 100 0.0 0 0 64300 26700 " />
<path d="M64300 26700 A100 100 0.0 0 0 64400 26800 " />
<path d="M45700 26700 A100 100 0.0 0 0 45800 26800 " />
<path d="M45800 26600 A100 100 0.0 0 0 45700 26700 " />
<path d="M50900 26700 A100 100 0.0 0 0 50800 26600 " />
<path d="M50800 26800 A100 100 0.0 0 0 50900 26700 " />
<path d="M50800 26600
L45800 26600
" />
<path d="M45800 26800
L50800 26800
" />
<path d="M58100 26700 A100 100 0.0 0 0 58200 26800 " />
<path d="M58200 26600 A100 100 0.0 0 0 58100 26700 " />
<path d="M63300 26700 A100 100 0.0 0 0 63200 26600 " />
<path d="M63200 26800 A100 100 0.0 0 0 63300 26700 " />
<path d="M63200 26600
L58200 26600
" />
<path d="M58200 26800
L63200 26800
" />
<path d="M51400 27300 A100 100 0.0 0 0 51300 27200 " />
<path d="M51300 27200 A100 100 0.0 0 0 51200 27300 " />
<path d="M51200 31300 A100 100 0.0 0 0 51300 31400 " />
<path d="M51300 31400 A100 100 0.0 0 0 51400 31300 " />
<path d="M51400 31300
L51400 27300
" />
<path d="M51200 27300
L51200 31300
" />
<path d="M57400 27300
L57400 31300
" />
<path d="M57600 31300
L57600 27300
" />
<path d="M57500 31400 A100 100 0.0 0 0 57600 31300 " />
<path d="M57400 31300 A100 100 0.0 0 0 57500 31400 " />
<path d="M57500 27200 A100 100 0.0 0 0 57400 27300 " />
<path d="M57600 27300 A100 100 0.0 0 0 57500 27200 " />
<path d="M51900 26800
L56900 26800
" />
<path d="M56900 26600
L51900 26600
" />
<path d="M56900 26800 A100 100 0.0 0 0 57000 26700 " />
<path d="M57000 26700 A100 100 0.0 0 0 56900 26600 " />
<path d="M51900 26600 A100 100 0.0 0 0 51800 26700 " />
<path d="M51800 26700 A100 100 0.0 0 0 51900 26800 " />
<path d="M57600 22100 A100 100 0.0 0 0 57500 22000 " />
<path d="M57500 22000 A100 100 0.0 0 0 57400 22100 " />
<path d="M57400 26100 A100 100 0.0 0 0 57500 26200 " />
<path d="M57500 26200 A100 100 0.0 0 0 57600 26100 " />
<path d="M57600 26100
L57600 22100
" />
<path d="M57400 22100
L57400 26100
" />
<path d="M51200 22100
L51200 26100
" />
<path d="M51400 26100
L51400 22100
" />
<path d="M51300 26200 A100 100 0.0 0 0 51400 26100 " />
<path d="M51200 26100 A100 100 0.0 0 0 51300 26200 " />
<path d="M51300 22000 A100 100 0.0 0 0 51200 22100 " />
<path d="M51400 22100 A100 100 0.0 0 0 51300 22000 " />
<path d="M45100 26300
L45000 26300
" />
<path d="M45100 26300 A100 100 0.0 0 0 45200 26200 " />
<path d="M44900 26200 A100 100 0.0 0 0 45000 26300 " />
<path d="M45100 22000
L45000 22000
" />
<path d="M45000 22000 A100 100 0.0 0 0 44900 22100 " />
<path d="M45200 22100 A100 100 0.0 0 0 45100 22000 " />
<path d="M45200 26200
L45200 22100
" />
<path d="M39000 57600
L39000 21800
" />
<path d="M44900 22100
L44900 26200
" />
<path d="M39000 21800
L76000 21800
" />
<path d="M76000 57600
L39000 57600
" />
<path d="M76000 21800
L76000 57600
" />
</g> 
</svg>
